<svg display="none" xmlns="http://www.w3.org/2000/svg" xmlns:xlink="http://www.w3.org/1999/xlink">
   <symbol id="logo" viewBox="0 0 120 50">
      <path d="M20.116 22.3227L15.5549 3.52522H8.9758L4 22.3227H9.22459L9.91567 18.8396H13.841L14.4768 22.3227H20.116ZM13.1499 14.9419H10.6344L11.906 8.08637L13.1499 14.9419Z" fill="currentColor" />
      <path
         d="M36.751 22.3227L32.494 14.0573C34.2355 12.924 35.2859 11.1548 35.2859 8.88802C35.2859 5.01796 32.6045 3 28.1816 3C26.3571 3 24.2563 3.35936 21.8513 4.05044V22.3227H27.3523V15.3289H27.6011L30.0614 22.3227H36.751ZM29.6467 9.57911C29.6467 11.68 28.7621 12.3987 27.3523 12.5093V7.1465C28.6239 7.22943 29.6467 7.86522 29.6467 9.57911Z"
         fill="currentColor" />
      <path
         d="M50.747 16.9599C50.747 8.74981 43.615 11.1824 43.615 8.88802C43.615 7.69936 44.6378 7.1465 45.9094 7.1465C47.4021 7.1465 48.9778 7.83758 49.8071 8.22458V4.18866C48.2867 3.41465 46.9046 3 45.2183 3C41.5417 3 38.114 4.99032 38.114 9.16446C38.114 16.9599 45.2183 14.9419 45.2183 17.2087C45.2183 18.2315 44.2232 18.7014 42.9516 18.7014C41.293 18.7014 39.1091 18.0103 38.114 17.6233V21.6592C39.5238 22.4333 41.4312 22.8479 43.3386 22.8479C47.0428 22.8479 50.747 21.1617 50.747 16.9599Z"
         fill="currentColor" />
      <path d="M64.1924 22.3227V18.1485H58.802V14.9419H62.8379V10.7678H58.802V7.69936H64.1924V3.52522H53.301V22.3227H64.1924Z" fill="currentColor" />
      <path d="M82.8467 22.3227V3.52522H78.3961V16.0753L73.835 3.52522H66.1778V22.3227H70.6283V9.63439L75.3277 22.3227H82.8467Z" fill="currentColor" />
      <path d="M91.5474 22.3227V3.52522H86.0464V22.3227H91.5474Z" fill="currentColor" />
      <path d="M100.985 19.3649V3.52522H93.466V7.56114H95.484V18.9778C95.484 21.6592 93.7148 23.926 92.388 25.0041L97.7508 25.2805C99.1053 24.2024 100.985 22.3227 100.985 19.3649Z" fill="currentColor" />
      <path
         d="M115.887 16.9599C115.887 8.74981 108.755 11.1824 108.755 8.88802C108.755 7.69936 109.778 7.1465 111.05 7.1465C112.542 7.1465 114.118 7.83758 114.947 8.22458V4.18866C113.427 3.41465 112.045 3 110.359 3C106.682 3 103.254 4.99032 103.254 9.16446C103.254 16.9599 110.359 14.9419 110.359 17.2087C110.359 18.2315 109.363 18.7014 108.092 18.7014C106.433 18.7014 104.249 18.0103 103.254 17.6233V21.6592C104.664 22.4333 106.571 22.8479 108.479 22.8479C112.183 22.8479 115.887 21.1617 115.887 16.9599Z"
         fill="currentColor" />
      <path d="M22.0796 32.6994V28.5252H11.1881V47.3227H16.6891V41.2688H20.725V37.1223H16.6891V32.6994H22.0796Z" fill="currentColor" />
      <path d="M38.041 47.3227L33.4798 28.5252H26.9007L21.9249 47.3227H27.1495L27.8406 43.8396H31.766L32.4017 47.3227H38.041ZM31.0749 39.9419H28.5593L29.8309 33.0864L31.0749 39.9419Z" fill="currentColor" />
      <path
         d="M53.2109 41.5452C53.2109 39.3891 51.8011 38.0622 49.6726 37.4264C51.9946 36.2377 52.5475 34.745 52.5475 33.2246C52.5475 29.7139 49.5343 28 45.2773 28C43.6187 28 41.7113 28.2488 39.7762 28.8017V47.0463C41.9048 47.682 43.7569 47.9861 45.4155 47.9861C50.3084 47.9861 53.2109 45.4982 53.2109 41.5452ZM45.1667 39.6655C46.6318 39.7208 47.9863 40.2736 47.9863 41.8217C47.9863 43.425 46.6041 44.0055 45.1667 44.0884V39.6655ZM47.4334 34.4409C47.4334 35.1043 47.3505 36.1271 46.8806 36.9012C46.4106 36.8735 45.7748 36.8459 45.2773 36.8459H45.1667V31.7595C46.4106 31.953 47.4334 32.7823 47.4334 34.4409Z"
         fill="currentColor" />
      <path
         d="M70.5223 47.3227L66.2652 39.0573C68.0068 37.924 69.0572 36.1548 69.0572 33.888C69.0572 30.018 66.3758 28 61.9529 28C60.1284 28 58.0275 28.3594 55.6226 29.0505V47.3227H61.1236V40.3289H61.3724L63.8326 47.3227H70.5223ZM63.418 34.5791C63.418 36.68 62.5334 37.3987 61.1236 37.5093V32.1465C62.3952 32.2294 63.418 32.8652 63.418 34.5791Z"
         fill="currentColor" />
      <path d="M78.0497 47.3227V28.5252H72.5487V47.3227H78.0497Z" fill="currentColor" />
      <path
         d="M94.3152 46.6592V42.2087C92.933 42.8445 91.385 43.2868 90.0305 43.2868C87.7637 43.2868 85.9946 42.264 85.9946 38.2004C85.9946 33.9157 87.9573 32.5612 90.4452 32.5612C91.6615 32.5612 93.016 32.9482 94.3152 33.6392V29.1887C92.6566 28.4147 91.0533 28 89.5053 28C84.5018 28 80.3553 31.8424 80.3553 38.8638C80.3553 44.973 84.4466 47.8479 89.0906 47.8479C90.8322 47.8479 92.6013 47.4333 94.3152 46.6592Z"
         fill="currentColor" />
      <path d="M110.983 47.3227L106.422 28.5252H99.8424L94.8666 47.3227H100.091L100.782 43.8396H104.708L105.344 47.3227H110.983ZM104.017 39.9419H101.501L102.773 33.0864L104.017 39.9419Z" fill="currentColor" />
   </symbol>
   <symbol id="logoFooter" viewBox="0 0 115 50">
      <path
         d="M16.1161 22.3227L11.5549 3.52523H4.97579L0 22.3227H5.22458L5.91567 18.8396H9.84102L10.4768 22.3227H16.1161ZM9.14993 14.9419H6.63439L7.90598 8.08637L9.14993 14.9419ZM32.7511 22.3227L28.494 14.0573C30.2355 12.924 31.286 11.1548 31.286 8.88803C31.286 5.01796 28.6046 3 24.1817 3C22.3572 3 20.2563 3.35936 17.8513 4.05045V22.3227H23.3524V15.3289H23.6011L26.0614 22.3227H32.7511ZM25.6467 9.57911C25.6467 11.68 24.7622 12.3987 23.3524 12.5093V7.1465C24.6239 7.22943 25.6467 7.86523 25.6467 9.57911ZM46.747 16.9599C46.747 8.74981 39.615 11.1824 39.615 8.88803C39.615 7.69937 40.6379 7.1465 41.9094 7.1465C43.4022 7.1465 44.9779 7.83758 45.8072 8.22459V4.18867C44.2868 3.41465 42.9046 3 41.2184 3C37.5418 3 34.114 4.99032 34.114 9.16446C34.114 16.9599 41.2184 14.9419 41.2184 17.2087C41.2184 18.2315 40.2232 18.7014 38.9516 18.7014C37.293 18.7014 35.1092 18.0103 34.114 17.6233V21.6593C35.5238 22.4333 37.4312 22.8479 39.3386 22.8479C43.0428 22.8479 46.747 21.1617 46.747 16.9599ZM60.1925 22.3227V18.1486H54.802V14.9419H58.8379V10.7678H54.802V7.69937H60.1925V3.52523H49.301V22.3227H60.1925ZM78.8467 22.3227V3.52523H74.3962V16.0753L69.835 3.52523H62.1778V22.3227H66.6284V9.6344L71.3278 22.3227H78.8467ZM87.5475 22.3227V3.52523H82.0465V22.3227H87.5475ZM96.9851 19.3649V3.52523H89.4661V7.56115H91.4841V18.9779C91.4841 21.6593 89.7149 23.926 88.388 25.0041L93.7508 25.2805C95.1053 24.2024 96.9851 22.3227 96.9851 19.3649ZM111.887 16.9599C111.887 8.74981 104.755 11.1824 104.755 8.88803C104.755 7.69937 105.778 7.1465 107.05 7.1465C108.542 7.1465 110.118 7.83758 110.947 8.22459V4.18867C109.427 3.41465 108.045 3 106.359 3C102.682 3 99.254 4.99032 99.254 9.16446C99.254 16.9599 106.359 14.9419 106.359 17.2087C106.359 18.2315 105.363 18.7014 104.092 18.7014C102.433 18.7014 100.249 18.0103 99.254 17.6233V21.6593C100.664 22.4333 102.571 22.8479 104.479 22.8479C108.183 22.8479 111.887 21.1617 111.887 16.9599ZM12.3566 32.6994V28.5252H1.46509V47.3227H6.96611V41.2688H11.0021V37.1223H6.96611V32.6994H12.3566ZM28.318 47.3227L23.7569 28.5252H17.1777L12.2019 47.3227H17.4265L18.1176 43.8396H22.043L22.6788 47.3227H28.318ZM21.3519 39.9419H18.8363L20.1079 33.0864L21.3519 39.9419ZM43.4879 41.5452C43.4879 39.3891 42.0781 38.0622 39.9496 37.4264C42.2716 36.2377 42.8245 34.745 42.8245 33.2246C42.8245 29.7139 39.8114 28 35.5543 28C33.8957 28 31.9883 28.2488 30.0533 28.8017V47.0463C32.1818 47.6821 34.0339 47.9861 35.6925 47.9861C40.5854 47.9861 43.4879 45.4982 43.4879 41.5452ZM35.4437 39.6655C36.9088 39.7208 38.2633 40.2737 38.2633 41.8217C38.2633 43.425 36.8812 44.0055 35.4437 44.0884V39.6655ZM37.7105 34.4409C37.7105 35.1044 37.6275 36.1272 37.1576 36.9012C36.6877 36.8735 36.0519 36.8459 35.5543 36.8459H35.4437V31.7595C36.6877 31.953 37.7105 32.7823 37.7105 34.4409ZM60.7993 47.3227L56.5423 39.0573C58.2838 37.924 59.3342 36.1548 59.3342 33.888C59.3342 30.018 56.6528 28 52.2299 28C50.4054 28 48.3046 28.3594 45.8996 29.0505V47.3227H51.4006V40.3289H51.6494L54.1096 47.3227H60.7993ZM53.695 34.5791C53.695 36.68 52.8104 37.3987 51.4006 37.5093V32.1465C52.6722 32.2295 53.695 32.8652 53.695 34.5791ZM68.3267 47.3227V28.5252H62.8257V47.3227H68.3267ZM84.5922 46.6593V42.2087C83.2101 42.8445 81.662 43.2868 80.3075 43.2868C78.0408 43.2868 76.2716 42.264 76.2716 38.2004C76.2716 33.9157 78.2343 32.5612 80.7222 32.5612C81.9385 32.5612 83.293 32.9482 84.5922 33.6393V29.1887C82.9336 28.4147 81.3303 28 79.7823 28C74.7789 28 70.6324 31.8424 70.6324 38.8638C70.6324 44.973 74.7236 47.8479 79.3676 47.8479C81.1092 47.8479 82.8783 47.4333 84.5922 46.6593ZM101.26 47.3227L96.6985 28.5252H90.1194L85.1436 47.3227H90.3682L91.0593 43.8396H94.9846L95.6204 47.3227H101.26ZM94.2935 39.9419H91.778L93.0496 33.0864L94.2935 39.9419Z"
         fill="white" />
   </symbol>
   <symbol id="iconFavorite" viewBox="0 0 45 45">
      <path
         d="M38.6123 6.67835C36.5679 5.34035 34.146 4.77626 31.7515 5.08043C29.3569 5.38459 27.1348 6.53854 25.4568 8.34939L23.0057 10.871H22.9482L20.5257 8.34939C18.8477 6.53854 16.6255 5.38459 14.231 5.08043C11.8364 4.77626 9.41456 5.34035 7.37021 6.67835C6.17545 7.48694 5.16827 8.56373 4.4219 9.83038C3.67552 11.097 3.20875 12.5217 3.05559 14.0006C2.90243 15.4795 3.06671 16.9755 3.53649 18.3797C4.00626 19.784 4.76971 21.0611 5.77126 22.1181L22.8811 41L40.2399 22.1181C41.2401 21.0589 42.0017 19.7801 42.4691 18.3746C42.9366 16.9691 43.0983 15.4724 42.9425 13.9933C42.7865 12.5143 42.3169 11.0902 41.5679 9.82477C40.8187 8.55934 39.809 7.48445 38.6123 6.67835Z"
         stroke="currentColor" stroke-width="4" stroke-linecap="round" stroke-linejoin="round" />
   </symbol>
   <symbol id="iconBacket" viewBox="0 0 45 45">
      <path
         d="M15.5 17.3752V8.62095C15.5 4.96429 18.6339 2 22.4999 2C26.3659 2 29.5 4.96429 29.5 8.62095V17.3752M9.04515 38.4851L5.12807 19.266C4.39419 15.6653 6.90718 12.2495 10.2902 12.2495H34.7098C38.0927 12.2495 40.6058 15.6653 39.872 19.266L35.9547 38.4851C35.4171 41.1231 33.2713 43 30.7927 43H14.2073C11.7288 43 9.5828 41.1231 9.04515 38.4851Z"
         stroke="currentColor" stroke-width="4" />
   </symbol>
   <symbol id="iconSearch" viewBox="0 0 45 45">
      <path d="M20.0001 36C28.8366 36 36 28.8366 36 20.0001C36 11.1634 28.8366 4 20.0001 4C11.1635 4 4 11.1634 4 20.0001C4 28.8366 11.1635 36 20.0001 36Z" stroke="currentColor" stroke-width="4" stroke-linecap="round"
         stroke-linejoin="round" />
      <path d="M32 32L42 42" stroke="#211747" stroke-width="4" stroke-miterlimit="10" stroke-linecap="round" />
   </symbol>
   <symbol id="iconArrow" viewBox="0 0 45 45">
      <path d="M22.5 45C34.9264 45 45 34.9264 45 22.5C45 10.0736 34.9264 0 22.5 0C10.0736 0 0 10.0736 0 22.5C0 34.9264 10.0736 45 22.5 45Z" fill="white" />
      <path
         d="M30.7349 23.1242C31.0884 22.7794 31.0884 22.2206 30.7349 21.8758L24.9753 16.2585C24.622 15.9138 24.0489 15.9138 23.6954 16.2585C23.342 16.6032 23.342 17.1621 23.6954 17.5068L28.815 22.5L23.6954 27.4932C23.342 27.8379 23.342 28.3968 23.6954 28.7415C24.0489 29.0862 24.622 29.0862 24.9753 28.7415L30.7349 23.1242ZM13 23.3827H30.0949V21.6173H13V23.3827Z"
         fill="#211747" />
      <rect x="0.5" y="0.5" width="44" height="44" rx="22" stroke="#211747" />
   </symbol>
   <symbol id="iconHeaderNav" viewBox="0 0 70 45">
      <path
         d="M46.3494 2.63446L18.0866 6.25431C8.09763 7.53367 1.0439 16.6158 2.33163 26.5399C3.61935 36.4639 12.7609 43.4718 22.7498 42.1924L51.0126 38.5726C61.0015 37.2932 68.0553 28.2111 66.7676 18.287C65.4798 8.363 56.3383 1.3551 46.3494 2.63446Z"
         fill="#BFE8FB" stroke="#211747" stroke-width="2" />
      <path
         d="M19.2681 20.1814L19 18.1551L28.1833 17L28.4514 19.0263L25.1356 19.4433L26.2472 27.8467L23.6801 28.1696L22.5685 19.7662L19.2681 20.1814ZM34.2229 27.0102C32.9598 27.1691 31.9027 26.9284 31.0516 26.2881C30.1992 25.638 29.6994 24.7567 29.5524 23.6442C29.4038 22.5218 29.6578 21.5456 30.3145 20.7157C30.9698 19.8759 31.929 19.3766 33.1921 19.2177C34.4553 19.0589 35.513 19.3045 36.3654 19.9546C37.2165 20.5949 37.7162 21.4763 37.8647 22.5987C38.0119 23.7112 37.7527 24.688 37.0873 25.5291C36.4306 26.3589 35.4759 26.8526 34.2229 27.0102ZM34.7264 21.5393C34.3593 21.1915 33.9263 21.0491 33.4271 21.1119C32.928 21.1747 32.5462 21.4196 32.2816 21.8467C32.017 22.2739 31.9222 22.7704 31.9971 23.3367C32.0707 23.893 32.2911 24.3449 32.658 24.6926C33.0353 25.0389 33.4683 25.1813 33.9573 25.1199C34.4565 25.0572 34.8383 24.8122 35.1029 24.385C35.3776 23.9567 35.4782 23.4643 35.4046 22.9081C35.3297 22.3419 35.1036 21.8856 34.7264 21.5393ZM39.7852 18.5702L42.2299 18.2627L42.3403 19.0971C42.8954 18.3608 43.6771 17.9292 44.6856 17.8024C45.7145 17.673 46.6456 17.9396 47.4789 18.6023C48.3223 19.2637 48.8164 20.1406 48.9609 21.2333C49.1054 22.326 48.8494 23.2871 48.1928 24.117C47.5465 24.9456 46.7037 25.4252 45.6647 25.5559C44.6868 25.6789 43.8322 25.443 43.1011 24.8483L43.6096 28.6924L41.1648 29L39.7852 18.5702ZM42.7247 22.0026C42.797 22.5488 43.0427 22.9976 43.462 23.3488C43.88 23.6901 44.3691 23.8255 44.9294 23.755C45.4794 23.6859 45.9122 23.4345 46.2276 23.0009C46.5418 22.5575 46.6628 22.0627 46.5905 21.5163C46.5182 20.97 46.2731 20.5262 45.8552 20.1849C45.4358 19.8337 44.9512 19.6927 44.4011 19.7619C43.851 19.8311 43.4189 20.0874 43.1047 20.5308C42.7893 20.9644 42.6625 21.4549 42.7247 22.0026Z"
         fill="#211747" />
   </symbol>
   <symbol id="indexTitleIcon-1" viewBox="0 0 130 55">
      <path
         d="M106.671 3.98739L19.0475 15.3156C9.1923 16.5897 2.23305 25.6345 3.50352 35.5177C4.774 45.4009 13.7931 52.3799 23.6483 51.1058L111.272 39.7776C121.127 38.5035 128.086 29.4588 126.816 19.5756C125.545 9.69235 116.526 2.71329 106.671 3.98739Z"
         fill="#BFE8FB" />
      <path
         d="M18.8848 26.9998L21.408 26.6734L21.9746 30.9595L26.87 30.3263L26.3184 26.0383L28.8568 25.7099L30.2211 36.3164L27.6827 36.6448L27.1331 32.3719L22.2377 33.0051L22.7873 37.278L20.249 37.6064L18.8848 26.9998ZM36.5483 35.652C35.5208 35.785 34.5863 35.5259 33.7449 34.8747C32.9134 34.2224 32.4262 33.3406 32.2833 32.2294C32.1403 31.1182 32.3821 30.1319 33.0087 29.2703C33.6451 28.4075 34.4722 27.9103 35.4895 27.7787C36.4968 27.6484 37.3549 27.8712 38.0638 28.4469L37.9567 27.6136L40.3742 27.3009L41.3487 34.8771L38.9312 35.1897L38.8181 34.3109C38.282 35.0786 37.5253 35.5256 36.5483 35.652ZM37.7017 30.0497C37.2871 29.6925 36.8078 29.5491 36.2639 29.6195C35.72 29.6898 35.2927 29.9505 34.982 30.4015C34.6713 30.8525 34.5518 31.3557 34.6232 31.9113C34.6947 32.4669 34.9377 32.9232 35.3523 33.2804C35.7656 33.6274 36.2442 33.7659 36.7882 33.6955C37.3421 33.6238 37.7752 33.3675 38.0871 32.9267C38.3978 32.4757 38.5173 31.9724 38.4459 31.4168C38.3644 30.8626 38.1162 30.4068 37.7017 30.0497ZM46.5127 34.209L44.0952 34.5217L43.1207 26.9456L45.5382 26.6329L45.6473 27.4814C46.1633 26.7163 46.8999 26.2719 47.8567 26.1481C48.874 26.0166 49.7272 26.2399 50.416 26.8183C51.1136 27.3853 51.5377 28.2548 51.6884 29.4266L52.2088 33.4722L49.7914 33.7849L49.2983 29.9514C49.2255 29.3857 49.0267 28.9544 48.7018 28.6576C48.3769 28.3607 47.9727 28.2435 47.4891 28.3061C46.9654 28.3738 46.5714 28.6148 46.3072 29.0289C46.0531 29.4417 45.9624 29.931 46.0352 30.4967L46.5127 34.209ZM58.2737 32.8416C57.2462 32.9746 56.3118 32.7155 55.4702 32.0644C54.6387 31.4121 54.1515 30.5302 54.0086 29.419C53.8657 28.3079 54.1125 27.3209 54.7491 26.4581C55.3857 25.5952 56.2076 25.0987 57.2149 24.9684C58.2322 24.8368 59.091 25.0645 59.7912 25.6518L59.2923 21.7728L61.7097 21.4601L63.074 32.0667L60.6565 32.3793L60.5435 31.5006C59.9973 32.2695 59.2406 32.7166 58.2737 32.8416ZM59.4271 27.2393C59.0124 26.8822 58.5332 26.7388 57.9893 26.8092C57.4453 26.8795 57.018 27.1402 56.7074 27.5912C56.3968 28.0421 56.2771 28.5454 56.3486 29.1009C56.42 29.6565 56.6631 30.1129 57.0776 30.47C57.491 30.8171 57.9696 30.9555 58.5135 30.8851C59.0676 30.8135 59.5005 30.5572 59.8124 30.1163C60.1231 29.6653 60.2427 29.162 60.1712 28.6064C60.0897 28.0522 59.8417 27.5965 59.4271 27.2393ZM65.8206 31.7114L64.8461 24.1353L67.2636 23.8226L67.3747 24.6863C67.8894 23.9111 68.6051 23.4641 69.5217 23.3456C70.7404 23.1879 71.6692 23.6018 72.3081 24.5872C72.8074 23.4546 73.6515 22.8114 74.8401 22.6576C75.7567 22.539 76.5337 22.7672 77.1708 23.342C77.808 23.9168 78.2025 24.7951 78.3546 25.977L78.8749 30.0227L76.4574 30.3354L75.9643 26.5019C75.8903 25.9261 75.7116 25.4922 75.4283 25.2002C75.1437 24.8982 74.7747 24.7765 74.3214 24.8351C73.8682 24.8937 73.5296 25.1275 73.3057 25.5364C73.0804 25.9353 73.0037 26.4125 73.0751 26.9681L73.5565 30.7107L71.139 31.0234L70.6459 27.1899C70.5718 26.6141 70.3932 26.1802 70.1098 25.8882C69.8253 25.5861 69.4613 25.4638 69.0181 25.5211C68.5447 25.5824 68.196 25.8174 67.9722 26.2264C67.757 26.6239 67.6865 27.1105 67.7605 27.6863L68.238 31.3987L65.8206 31.7114ZM84.9419 29.3919C83.9145 29.5248 82.98 29.2657 82.1385 28.6147C81.3071 27.9622 80.8199 27.0805 80.6769 25.9693C80.534 24.8582 80.7758 23.8718 81.4023 23.0103C82.0389 22.1474 82.8659 21.6503 83.8832 21.5186C84.8904 21.3883 85.7486 21.6111 86.4576 22.1869L86.3504 21.3535L88.7679 21.0408L89.7423 28.6169L87.3249 28.9296L87.2119 28.0508C86.6756 28.8185 85.9191 29.2655 84.9419 29.3919ZM86.0954 23.7896C85.6808 23.4325 85.2015 23.2891 84.6576 23.3594C84.1137 23.4297 83.6864 23.6905 83.3757 24.1414C83.0651 24.5924 82.9455 25.0956 83.0169 25.6512C83.0884 26.2068 83.3315 26.6632 83.746 27.0203C84.1593 27.3674 84.638 27.5057 85.1818 27.4354C85.7358 27.3636 86.1688 27.1074 86.4808 26.6666C86.7914 26.2156 86.911 25.7123 86.8395 25.1567C86.7581 24.6024 86.51 24.1468 86.0954 23.7896ZM95.9079 27.9734C94.8805 28.1064 93.9461 27.8472 93.1045 27.1961C92.273 26.5437 91.7858 25.6619 91.6429 24.5508C91.5 23.4396 91.7468 22.4527 92.3834 21.5898C93.02 20.727 93.8419 20.2304 94.8491 20.1001C95.8665 19.9685 96.7253 20.1963 97.4255 20.7835L96.9266 16.9046L99.344 16.5918L100.708 27.1983L98.2908 27.5111L98.1778 26.6323C97.6316 27.4012 96.8749 27.8484 95.9079 27.9734ZM97.0614 22.3711C96.6468 22.0139 96.1675 21.8705 95.6236 21.9409C95.0796 22.0112 94.6523 22.2719 94.3417 22.7229C94.0311 23.1739 93.9114 23.6771 93.9829 24.2327C94.0544 24.7882 94.2974 25.2446 94.712 25.6018C95.1253 25.9488 95.6039 26.0871 96.1478 26.0169C96.7019 25.9452 97.1348 25.6889 97.4467 25.248C97.7574 24.7971 97.877 24.2938 97.8055 23.7382C97.724 23.184 97.476 22.7282 97.0614 22.3711ZM102.605 23.102C102.458 21.9605 102.699 20.9691 103.329 20.1278C103.956 19.2763 104.895 18.7698 106.144 18.6083C107.453 18.4389 108.509 18.7284 109.312 19.477C110.114 20.2154 110.566 21.2198 110.668 22.4903L105.107 23.2096C105.245 23.7257 105.501 24.1189 105.874 24.3891C106.255 24.6478 106.687 24.7459 107.171 24.6833C107.986 24.5778 108.579 24.1724 108.95 23.4673L110.531 24.2949C110.303 24.8276 109.899 25.3112 109.32 25.7455C108.749 26.1685 108.046 26.434 107.21 26.5422C106.012 26.6972 104.981 26.4455 104.118 25.7869C103.253 25.1182 102.75 24.2233 102.605 23.102ZM105.009 21.8512L108.318 21.4232C108.24 21.0534 108.034 20.7617 107.699 20.5483C107.364 20.3349 106.985 20.2555 106.562 20.3102C106.129 20.3662 105.776 20.53 105.504 20.8014C105.232 21.0728 105.067 21.4227 105.009 21.8512Z"
         fill="#211747" />
      <path
         d="M106.912 2.4161L18.1351 13.8934C7.76338 15.2343 0.439376 24.7532 1.77644 35.1544L1.92486 36.3089C3.26192 46.7101 12.7537 54.055 23.1254 52.7141L111.902 41.2368C122.274 39.8959 129.598 30.3771 128.261 19.9758L128.113 18.8213C126.776 8.4201 117.284 1.07523 106.912 2.4161Z"
         stroke="#211747" stroke-width="3" />
   </symbol>
   <symbol id="indexIcon-1" viewBox="0 0 37 37">
      <path
         d="M35.9404 18.6061C30.5391 19.9603 26.8413 21.4882 24.1706 24.1614C21.5002 26.8345 19.9758 30.5337 18.6207 35.9301C18.614 35.954 18.5997 35.9752 18.5798 35.9906C18.5594 36.0064 18.5341 36.0151 18.508 36.0151C18.4818 36.0151 18.4566 36.0064 18.4362 35.9906C18.4162 35.9752 18.402 35.954 18.3953 35.9301C17.04 30.5329 15.5109 26.8337 12.8359 24.1608C10.161 21.488 6.45918 19.9603 1.05794 18.6061C1.03357 18.5993 1.01215 18.5849 0.996836 18.5651C0.981133 18.5448 0.972656 18.5199 0.972656 18.4944C0.972656 18.4688 0.981134 18.4439 0.996836 18.4236C1.01216 18.4038 1.03357 18.3894 1.05794 18.3826C6.45918 17.0284 10.161 15.5007 12.8359 12.8279C15.511 10.155 17.04 6.45578 18.3953 1.05859C18.402 1.03473 18.4162 1.01348 18.4362 0.998115C18.4566 0.982283 18.4819 0.973633 18.508 0.973633C18.5341 0.973633 18.5593 0.982283 18.5798 0.998115C18.5997 1.01348 18.614 1.03473 18.6207 1.05859C19.9757 6.45498 21.5002 10.1543 24.1706 12.8273C26.8413 15.5006 30.5391 17.0284 35.9404 18.3826C35.9648 18.3894 35.9863 18.4039 36.0016 18.4237C36.0173 18.4439 36.0257 18.4688 36.0257 18.4944C36.0257 18.5199 36.0173 18.5448 36.0016 18.5651C35.9863 18.5849 35.9649 18.5993 35.9404 18.6061Z"
         fill="#BFE8FB" stroke="#26103D" stroke-width="1.94692" />
   </symbol>
   <symbol id="indexStain-1" viewBox="0 0 600 530">
      <path fill-rule="evenodd" clip-rule="evenodd"
         d="M279.345 29.5453C358.377 10.0196 448.471 -23.7782 513.923 25.6315C582.948 77.7374 615.01 181.211 592.57 265.996C572.281 342.651 473.795 353.474 413.832 403.8C365.142 444.665 341.885 521.65 279.345 528.882C213.848 536.457 159.155 484.58 110.637 438.864C59.2255 390.421 -5.29121 337.33 0.345246 265.996C5.86428 196.148 83.21 163.686 135.91 119.024C180.75 81.0217 222.775 43.5213 279.345 29.5453Z"
         fill="#3F3C87" />
   </symbol>
   <symbol id="indexStain-2" viewBox="0 0 620 620">
      <path fill-rule="evenodd" clip-rule="evenodd"
         d="M305.92 14.3998C406.149 14.8976 528.598 -25.3693 592.738 51.9245C656.449 128.702 590.47 240.923 575.913 339.763C564.742 415.603 574.766 501.213 518.867 553.467C463.995 604.762 380.693 586.421 305.92 592.151C220.168 598.724 114.82 653.382 57.7554 588.81C0.404617 523.914 89.5277 426.247 82.8772 339.763C74.9523 236.704 -42.1282 134.219 16.2498 49.0613C73.5452 -34.5181 204.833 13.8978 305.92 14.3998Z"
         fill="#434092" />
   </symbol>
   <symbol id="iconProduct-1" viewBox="0 0 40 40">
      <g clip-path="url(#clip0_2219_53)">
         <path
            d="M16.568 24.1689C16.7077 24.7636 17.0725 25.4074 17.5435 25.8892C17.8755 26.2219 18.0517 26.3474 18.4855 26.5587C19.8653 27.2231 21.261 26.9955 22.3153 25.9355C22.763 25.4825 23.1254 24.8431 23.2846 24.2257C23.4523 23.5765 23.3618 22.6694 23.1907 22.1449C22.65 20.4866 21.4551 18.7923 20.9446 18.0687C20.9446 18.0687 20.5389 17.4645 19.9066 16.4738C19.773 16.6919 19.3615 17.3525 19.0137 17.8498C17.8578 19.5273 17.0648 20.9531 16.6588 22.0874C16.454 22.6632 16.4457 23.6463 16.568 24.1689ZM20.5145 25.284C20.974 25.1088 21.3625 24.7525 21.5801 24.3066C21.7229 24.0215 21.8233 23.8138 22.0661 23.844C22.2127 23.8646 22.2824 23.941 22.3149 24.0015C22.3906 24.1422 22.3568 24.3319 22.1968 24.6561C21.8604 25.3486 21.0131 26.0031 20.4535 26.0031C20.4306 26.0031 20.4085 26.0025 20.3863 26.0004C20.155 25.9814 20.0377 25.8794 20.0377 25.6968C20.038 25.4666 20.3022 25.3654 20.5145 25.284ZM20.8654 2.11808C21.4217 2.089 24.0727 2.00008 26.3205 2.76523C28.4878 3.50298 30.3072 5.11644 31.5839 7.43044C31.9754 8.13641 32.3842 9.05198 32.4971 9.38574C32.1743 9.4324 31.289 9.47906 30.5983 9.45269C28.6139 9.37594 26.6197 8.91544 25.2635 8.21961C24.3614 7.75673 24.3561 7.74119 24.2208 7.34522C23.7752 5.98802 22.9709 4.53076 22.014 3.3464L22.0166 3.34302C21.6637 3.00356 21.069 2.34529 20.8654 2.11808ZM20.3609 8.90937C20.2991 8.69163 20.3028 3.40023 20.3062 2.56644C20.4117 2.66449 20.577 2.82847 20.6714 2.92213C21.1204 3.37047 21.8145 4.21036 22.1289 4.68502C22.4708 5.1905 23.162 6.59809 23.4023 7.17724C24.1566 8.99423 24.3101 10.9414 24.2046 12.1553C24.1718 12.5329 24.106 13.0124 24.0643 13.2028L24.0474 13.2805L23.7543 13.0526C23.1038 12.5347 22.137 11.5413 21.6441 10.8831C21.2133 10.3215 20.4772 9.1738 20.3609 8.90937ZM22.2686 12.6763C22.674 13.0821 23.4885 13.7765 23.8827 14.0545C23.8455 14.2529 23.7072 14.7804 23.551 15.2514C23.2615 16.1128 22.5279 17.6218 22.0698 18.2973L22.0343 18.3501L21.8341 18.0593C21.636 17.7645 21.3148 17.3009 21.1177 17.0261C20.9145 16.7349 20.6531 16.3066 20.5351 16.0709L20.3312 15.6584L20.3137 12.6874C20.3041 11.3444 20.3099 10.6121 20.3181 10.2155C20.3958 10.3287 20.478 10.4487 20.5452 10.5475L20.5614 10.5718C21.1657 11.4716 21.548 11.9433 22.2686 12.6763ZM2.05078 24.5103C2.05078 23.8689 2.90451 23.0067 4.17478 22.3656C4.94432 21.9778 6.26703 21.5238 7.62587 21.1806C9.23833 20.7746 12.9886 20.2603 15.1975 20.143C15.5178 20.1244 16.2352 20.073 16.7728 20.0021C16.4242 20.6982 16.0956 21.4664 15.9968 21.8197C15.6763 22.9642 15.6784 23.968 16.0043 24.8035C16.4117 25.8496 17.1315 26.6628 18.0853 27.1558C18.7342 27.4891 19.2995 27.621 20.1042 27.6271H20.1177C21.7143 27.6271 23.1777 26.5425 23.8471 24.8644C23.9011 24.7278 24.3637 23.4846 23.8815 21.9059C23.7741 21.5523 23.4285 20.7601 23.0836 20.0707C23.3801 20.0957 23.7365 20.1095 24.0289 20.121C24.1663 20.1265 24.2927 20.1312 24.3975 20.1369C26.6652 20.2621 30.353 20.7688 31.9858 21.1807C34.4793 21.8144 36.0627 22.5314 36.9687 23.4375C37.5554 24.0185 37.6829 24.4631 37.4235 25.0247C36.6289 26.7633 32.6524 28.2662 26.7867 29.0454C24.4104 29.3619 22.3233 29.4972 19.8073 29.4972C12.7209 29.4972 5.9116 28.1359 3.24653 26.1871C2.50269 25.637 2.04499 24.9945 2.05078 24.5103ZM31.917 28.8188C34.7274 28.0445 36.5153 27.1853 37.5205 26.1228C37.4458 26.4879 37.3335 26.9701 37.2412 27.2814C36.4916 29.8375 35.1737 31.9224 33.0937 33.8435C30.7684 35.9806 27.4151 37.7507 24.341 38.4624C22.621 38.8603 18.7757 39.3096 15.2717 38.4624C12.1512 37.708 8.79753 35.9381 6.51911 33.8435C4.43908 31.9233 3.12143 29.8383 2.37151 27.2814C2.28022 26.9708 2.16695 26.4858 2.09155 26.1181C2.25148 26.2824 2.47564 26.4913 2.64909 26.6255C5.00637 28.4963 10.687 29.8619 17.4736 30.1886C22.2261 30.4148 28.1639 29.8514 31.917 28.8188ZM7.35408 9.32891C7.4606 9.01649 7.84569 8.13365 8.26864 7.37127C9.56222 5.02412 11.382 3.41097 13.5303 2.70667C14.171 2.49873 15.5837 2.20524 16.2788 2.13559C17.7529 1.98717 18.651 2.07237 18.9351 2.10888C18.7481 2.30127 18.2348 2.83074 17.964 3.13535C17.0003 4.21835 16.1287 5.76961 15.6326 7.28365C15.4964 7.68127 15.4913 7.69682 14.5886 8.16003C13.2321 8.85553 11.2377 9.31634 9.25321 9.39277C8.53203 9.42151 7.66006 9.36982 7.35408 9.32891ZM16.0418 8.39574C16.0431 8.38932 16.1959 7.74556 16.4434 7.12788C16.6773 6.54869 17.3837 5.12115 17.7228 4.62449C18.1846 3.93812 18.9846 3.00969 19.505 2.55458L19.527 2.53565C19.5371 5.02241 19.5364 8.67578 19.4905 8.83772C19.3901 9.09233 18.6587 10.2249 18.207 10.8244C17.7151 11.4807 16.7498 12.4731 16.0992 12.9914L15.804 13.2209L15.7871 13.1435C15.4825 11.663 15.5698 10.0221 16.0418 8.39574ZM16.4434 13.6267L16.4207 13.579L16.4519 13.6196C17.52 12.8017 18.5843 11.6089 19.529 10.1702L19.5969 10.0663L19.5973 10.0853C19.6088 10.391 19.6088 11.7319 19.5973 13.0745L19.5797 15.4849L19.3478 15.9502C19.2115 16.221 18.9366 16.6761 18.7352 16.9648C18.5235 17.2617 18.202 17.7252 18.0177 17.9982L17.8182 18.2899L17.7827 18.2372C17.3252 17.563 16.5912 16.0544 16.3007 15.1918C16.1455 14.7259 16.0052 14.1867 15.9687 13.9909C16.1077 13.8874 16.3771 13.6777 16.4434 13.6267Z"
            stroke="#211747" stroke-width="2" />
         <path
            d="M16.568 24.1689C16.7077 24.7636 17.0725 25.4074 17.5435 25.8892C17.8755 26.2219 18.0517 26.3474 18.4855 26.5587C19.8653 27.2231 21.261 26.9955 22.3153 25.9355C22.763 25.4825 23.1254 24.8431 23.2846 24.2257C23.4523 23.5765 23.3618 22.6694 23.1907 22.1449C22.65 20.4866 21.4551 18.7923 20.9446 18.0687C20.9446 18.0687 20.5389 17.4645 19.9066 16.4738C19.773 16.6919 19.3615 17.3525 19.0137 17.8498C17.8578 19.5273 17.0648 20.9531 16.6588 22.0874C16.454 22.6632 16.4457 23.6463 16.568 24.1689ZM20.5145 25.284C20.974 25.1088 21.3625 24.7525 21.5801 24.3066C21.7229 24.0215 21.8233 23.8138 22.0661 23.844C22.2127 23.8646 22.2824 23.941 22.3149 24.0015C22.3906 24.1422 22.3568 24.3319 22.1968 24.6561C21.8604 25.3486 21.0131 26.0031 20.4535 26.0031C20.4306 26.0031 20.4085 26.0025 20.3863 26.0004C20.155 25.9814 20.0377 25.8794 20.0377 25.6968C20.038 25.4666 20.3022 25.3654 20.5145 25.284ZM20.8654 2.11808C21.4217 2.089 24.0727 2.00008 26.3205 2.76523C28.4878 3.50298 30.3072 5.11644 31.5839 7.43044C31.9754 8.13641 32.3842 9.05198 32.4971 9.38574C32.1743 9.4324 31.289 9.47906 30.5983 9.45269C28.6139 9.37594 26.6197 8.91544 25.2635 8.21961C24.3614 7.75673 24.3561 7.74119 24.2208 7.34522C23.7752 5.98802 22.9709 4.53076 22.014 3.3464L22.0166 3.34302C21.6637 3.00356 21.069 2.34529 20.8654 2.11808ZM20.3609 8.90937C20.2991 8.69163 20.3028 3.40023 20.3062 2.56644C20.4117 2.66449 20.577 2.82847 20.6714 2.92213C21.1204 3.37047 21.8145 4.21036 22.1289 4.68502C22.4708 5.1905 23.162 6.59809 23.4023 7.17724C24.1566 8.99423 24.3101 10.9414 24.2046 12.1553C24.1718 12.5329 24.106 13.0124 24.0643 13.2028L24.0474 13.2805L23.7543 13.0526C23.1038 12.5347 22.137 11.5413 21.6441 10.8831C21.2133 10.3215 20.4772 9.1738 20.3609 8.90937ZM22.2686 12.6763C22.674 13.0821 23.4885 13.7765 23.8827 14.0545C23.8455 14.2529 23.7072 14.7804 23.551 15.2514C23.2615 16.1128 22.5279 17.6218 22.0698 18.2973L22.0343 18.3501L21.8341 18.0593C21.636 17.7645 21.3148 17.3009 21.1177 17.0261C20.9145 16.7349 20.6531 16.3066 20.5351 16.0709L20.3312 15.6584L20.3137 12.6874C20.3041 11.3444 20.3099 10.6121 20.3181 10.2155C20.3958 10.3287 20.478 10.4487 20.5452 10.5475L20.5614 10.5718C21.1657 11.4716 21.548 11.9433 22.2686 12.6763ZM2.05078 24.5103C2.05078 23.8689 2.90451 23.0067 4.17478 22.3656C4.94432 21.9778 6.26703 21.5238 7.62587 21.1806C9.23833 20.7746 12.9886 20.2603 15.1975 20.143C15.5178 20.1244 16.2352 20.073 16.7728 20.0021C16.4242 20.6982 16.0956 21.4664 15.9968 21.8197C15.6763 22.9642 15.6784 23.968 16.0043 24.8035C16.4117 25.8496 17.1315 26.6628 18.0853 27.1558C18.7342 27.4891 19.2995 27.621 20.1042 27.6271H20.1177C21.7143 27.6271 23.1777 26.5425 23.8471 24.8644C23.9011 24.7278 24.3637 23.4846 23.8815 21.9059C23.7741 21.5523 23.4285 20.7601 23.0836 20.0707C23.3801 20.0957 23.7365 20.1095 24.0289 20.121C24.1663 20.1265 24.2927 20.1312 24.3975 20.1369C26.6652 20.2621 30.353 20.7688 31.9858 21.1807C34.4793 21.8144 36.0627 22.5314 36.9687 23.4375C37.5554 24.0185 37.6829 24.4631 37.4235 25.0247C36.6289 26.7633 32.6524 28.2662 26.7867 29.0454C24.4104 29.3619 22.3233 29.4972 19.8073 29.4972C12.7209 29.4972 5.9116 28.1359 3.24653 26.1871C2.50269 25.637 2.04499 24.9945 2.05078 24.5103ZM31.917 28.8188C34.7274 28.0445 36.5153 27.1853 37.5205 26.1228C37.4458 26.4879 37.3335 26.9701 37.2412 27.2814C36.4916 29.8375 35.1737 31.9224 33.0937 33.8435C30.7684 35.9806 27.4151 37.7507 24.341 38.4624C22.621 38.8603 18.7757 39.3096 15.2717 38.4624C12.1512 37.708 8.79753 35.9381 6.51911 33.8435C4.43908 31.9233 3.12143 29.8383 2.37151 27.2814C2.28022 26.9708 2.16695 26.4858 2.09155 26.1181C2.25148 26.2824 2.47564 26.4913 2.64909 26.6255C5.00637 28.4963 10.687 29.8619 17.4736 30.1886C22.2261 30.4148 28.1639 29.8514 31.917 28.8188ZM7.35408 9.32891C7.4606 9.01649 7.84569 8.13365 8.26864 7.37127C9.56222 5.02412 11.382 3.41097 13.5303 2.70667C14.171 2.49873 15.5837 2.20524 16.2788 2.13559C17.7529 1.98717 18.651 2.07237 18.9351 2.10888C18.7481 2.30127 18.2348 2.83074 17.964 3.13535C17.0003 4.21835 16.1287 5.76961 15.6326 7.28365C15.4964 7.68127 15.4913 7.69682 14.5886 8.16003C13.2321 8.85553 11.2377 9.31634 9.25321 9.39277C8.53203 9.42151 7.66006 9.36982 7.35408 9.32891ZM16.0418 8.39574C16.0431 8.38932 16.1959 7.74556 16.4434 7.12788C16.6773 6.54869 17.3837 5.12115 17.7228 4.62449C18.1846 3.93812 18.9846 3.00969 19.505 2.55458L19.527 2.53565C19.5371 5.02241 19.5364 8.67578 19.4905 8.83772C19.3901 9.09233 18.6587 10.2249 18.207 10.8244C17.7151 11.4807 16.7498 12.4731 16.0992 12.9914L15.804 13.2209L15.7871 13.1435C15.4825 11.663 15.5698 10.0221 16.0418 8.39574ZM16.4434 13.6267L16.4207 13.579L16.4519 13.6196C17.52 12.8017 18.5843 11.6089 19.529 10.1702L19.5969 10.0663L19.5973 10.0853C19.6088 10.391 19.6088 11.7319 19.5973 13.0745L19.5797 15.4849L19.3478 15.9502C19.2115 16.221 18.9366 16.6761 18.7352 16.9648C18.5235 17.2617 18.202 17.7252 18.0177 17.9982L17.8182 18.2899L17.7827 18.2372C17.3252 17.563 16.5912 16.0544 16.3007 15.1918C16.1455 14.7259 16.0052 14.1867 15.9687 13.9909C16.1077 13.8874 16.3771 13.6777 16.4434 13.6267Z"
            fill="#BFE8FB" />
      </g>
      <defs>
         <clipPath id="clip0_2219_53">
            <rect width="40" height="40" fill="white" />
         </clipPath>
      </defs>
   </symbol>
   <symbol id="iconProduct-2" viewBox="0 0 40 40">
      <path fill-rule="evenodd" clip-rule="evenodd"
         d="M14.5081 1.07776C14.3001 1.13601 13.998 1.29099 13.8366 1.42214C12.7425 2.31131 12.6674 3.59378 13.5762 5.87155C13.7491 6.30509 13.8782 6.67251 13.8629 6.68788C13.8476 6.70334 13.6812 6.6368 13.4932 6.54007C12.5207 6.03959 11.3275 5.80421 10.6724 5.98358C10.219 6.10772 9.69634 6.60374 9.46978 7.12502C9.33833 7.42733 9.27924 7.74342 9.25396 8.27824C9.22403 8.91051 9.24811 9.10828 9.42357 9.67267C9.97023 11.4314 11.4084 13.2223 13.8592 15.1967C16.5975 17.4024 19.4717 19.3492 21.9256 20.6605C22.6538 21.0496 22.8236 21.1722 22.7777 21.2763C22.3675 22.2068 22.1918 23.2915 22.3297 24.0424L22.4041 24.4476L21.6233 24.54C18.8415 24.8692 16.403 26.0569 14.4912 28.0139C13.6663 28.8582 13.1062 29.6472 12.5858 30.6979C12.3821 31.1093 12.2085 31.4554 12.2002 31.467C12.1917 31.4785 11.981 31.3939 11.7319 31.2788C11.0685 30.9725 10.2953 30.9826 9.61601 31.3062C9.01722 31.5916 8.51566 32.0878 8.22716 32.6804C7.94285 33.2643 7.92231 34.2707 8.18308 34.8421C8.78385 36.1587 10.2052 36.6559 11.6931 36.0702C11.7877 36.0329 11.8417 36.1035 11.917 36.363C12.0492 36.8192 12.4277 37.4961 12.8082 37.9567C13.4227 38.7006 14.6509 39.475 15.616 39.7274C16.4319 39.9406 19.0707 40.0278 23.6342 39.9923C28.2841 39.9561 28.3491 39.9502 29.0667 39.4933C29.4685 39.2375 29.8914 38.72 30.0014 38.3497C30.3031 37.3343 29.9424 36.3263 29.0947 35.8151L28.8468 35.6656L29.1548 34.9384C29.3244 34.5383 29.5753 33.786 29.7125 33.2667C29.9446 32.3883 29.9625 32.2267 29.9683 30.9505L29.9746 29.5786L30.3516 29.4968C30.9285 29.3715 31.4565 29.0653 32.0315 28.5229C32.5995 27.987 32.9134 27.4586 32.9874 26.9142C33.1117 25.9992 32.2999 23.6666 31.32 22.1232C30.5098 20.8469 28.8631 19.6185 27.5357 19.2999C27.1205 19.2003 25.8156 19.1747 25.4801 19.2597C25.2995 19.3054 25.2743 19.2874 25.2743 19.1127C25.2743 18.2004 23.4975 11.7448 22.6487 9.57338C21.4401 6.48111 19.7243 3.73768 18.1582 2.39314C16.869 1.28637 15.5106 0.796884 14.5081 1.07776ZM15.8455 2.12207C17.0852 2.49346 18.7176 4.14676 19.9959 6.32549C21.3838 8.69115 22.2884 11.1392 23.5662 15.9878C24.4984 19.5244 24.5654 20.43 23.8955 20.43C23.4341 20.43 20.702 18.9 18.5201 17.4196C16.186 15.8361 13.3507 13.5823 12.4056 12.5593C10.543 10.5432 9.80947 8.63481 10.4274 7.41306C10.6227 7.02701 10.8351 6.9121 11.3344 6.92255C11.9058 6.9345 12.5623 7.18087 14.17 7.98676C15.5755 8.69123 15.7477 8.75824 15.8259 8.63075C15.8482 8.59442 15.6338 8.0655 15.3495 7.45545C14.2803 5.16103 13.8331 3.76724 13.938 3.05608C13.9913 2.69434 14.3486 2.20111 14.6449 2.08007C14.9015 1.97529 15.4153 1.9933 15.8455 2.12207ZM27.3674 20.2938C28.4101 20.5678 29.7273 21.5485 30.4049 22.5555C31.1366 23.6428 31.8978 25.5319 31.9705 26.4408C32.0046 26.8689 31.983 26.9802 31.8061 27.2846C31.5843 27.6663 30.9267 28.2217 30.4669 28.4154C30.1063 28.5674 29.3656 28.5675 28.9476 28.4157C28.7738 28.3526 28.6266 28.3004 28.6202 28.2996C28.6139 28.299 28.6761 28.5168 28.7584 28.7838C28.9615 29.4415 29.0807 30.5844 29.0229 31.319C28.9168 32.6699 28.6059 33.7814 27.8901 35.3696C27.6679 35.8623 27.4862 36.3016 27.4862 36.3456C27.4862 36.3898 27.6117 36.426 27.7653 36.426C28.0982 36.426 28.5635 36.6099 28.802 36.8361C29.4143 37.4162 29.1516 38.4119 28.2873 38.787C28.0213 38.9024 26.1135 39.0401 24.6163 39.0519L24.1558 39.0555L24.2124 38.7965C24.3149 38.3269 24.2705 37.4994 24.1274 37.2138C23.8191 36.598 23.4131 36.3634 22.4105 36.2218L22.035 36.1688L22.4817 35.6821C23.0149 35.1013 23.4979 34.1322 23.6076 33.4233C24.0018 30.8767 21.5508 29.0099 19.2239 30.0844C18.3932 30.468 17.4464 31.6006 17.6637 31.9507C17.709 32.0237 17.8345 32.0941 17.9428 32.1073C18.1012 32.1266 18.2033 32.0461 18.4669 31.694C18.8498 31.1822 19.1699 30.9203 19.7093 30.6767C20.6493 30.2522 21.9165 30.5973 22.4725 31.429C22.9727 32.1773 23.0433 33.3856 22.6359 34.2255C22.3216 34.8734 21.7947 35.4867 21.1021 36.0109C20.6497 36.3533 20.4888 36.5242 20.4705 36.6818C20.4345 36.9933 20.6739 37.0978 21.1754 36.9892C21.7228 36.8709 22.6227 36.8827 22.9267 37.0125C23.0665 37.0722 23.2491 37.1984 23.3325 37.2927C23.5081 37.4915 23.5843 38.1363 23.4996 38.7059L23.444 39.0804L20.6265 39.0251C16.1163 38.9366 15.6268 38.865 14.5307 38.1344C13.2244 37.2635 12.6006 36.0637 12.6068 34.434C12.6187 31.3741 15.0071 28.0207 18.2461 26.5162C19.6559 25.8614 21.2422 25.5097 22.7861 25.5097H23.8354L23.5932 24.8921C23.268 24.0633 23.2075 22.9925 23.447 22.3038C23.7369 21.4704 24.2332 20.9083 25.0558 20.4814C25.6742 20.1605 26.5805 20.0871 27.3674 20.2938ZM28.3202 24.2525C28.1171 24.5449 28.1632 24.9089 28.4322 25.1371C28.7272 25.3875 29.1736 25.5397 29.4258 25.4758C29.5721 25.4388 29.619 25.374 29.6183 25.2093C29.6173 24.917 29.2756 24.1921 29.1083 24.1274C28.8154 24.0138 28.445 24.0727 28.3202 24.2525ZM11.3346 32.1933C12.2236 32.6006 12.482 33.6998 11.8942 34.5737C11.5999 35.0114 11.1824 35.2468 10.6166 35.2942C10.0646 35.3403 9.70046 35.2059 9.36606 34.8327C9.05608 34.4866 8.96317 34.1416 9.01974 33.5474C9.07251 32.9938 9.39735 32.5421 9.94385 32.2626C10.4478 32.0049 10.8767 31.9835 11.3346 32.1933Z"
         fill="#211747" />
      <path
         d="M15.8455 2.12207C17.0852 2.49346 18.7176 4.14676 19.9959 6.32549C21.3838 8.69115 22.2884 11.1392 23.5662 15.9878C24.4984 19.5244 24.5654 20.43 23.8955 20.43C23.4341 20.43 20.702 18.9 18.5201 17.4196C16.186 15.8361 13.3507 13.5823 12.4056 12.5593C10.543 10.5432 9.80947 8.63481 10.4274 7.41306C10.6227 7.02701 10.8351 6.9121 11.3344 6.92255C11.9058 6.9345 12.5623 7.18087 14.17 7.98676C15.5755 8.69123 15.7477 8.75824 15.8259 8.63075C15.8482 8.59442 15.6338 8.0655 15.3495 7.45545C14.2803 5.16103 13.8331 3.76724 13.938 3.05608C13.9913 2.69434 14.3486 2.20111 14.6449 2.08007C14.9015 1.97529 15.4153 1.9933 15.8455 2.12207Z"
         fill="#C4BFFB" />
      <path fill-rule="evenodd" clip-rule="evenodd"
         d="M27.3674 20.2938C28.4101 20.5678 29.7273 21.5485 30.4049 22.5555C31.1366 23.6428 31.8978 25.5319 31.9705 26.4408C32.0046 26.8689 31.983 26.9802 31.8061 27.2846C31.5843 27.6663 30.9267 28.2217 30.4669 28.4154C30.1063 28.5674 29.3656 28.5675 28.9476 28.4157C28.7738 28.3526 28.6266 28.3004 28.6202 28.2996C28.6139 28.299 28.6761 28.5168 28.7584 28.7838C28.9615 29.4415 29.0807 30.5844 29.0229 31.319C28.9168 32.6699 28.6059 33.7814 27.8901 35.3696C27.6679 35.8623 27.4862 36.3016 27.4862 36.3456C27.4862 36.3898 27.6117 36.426 27.7653 36.426C28.0982 36.426 28.5635 36.6099 28.802 36.8361C29.4143 37.4162 29.1516 38.4119 28.2873 38.787C28.0213 38.9024 26.1135 39.0401 24.6163 39.0519L24.1558 39.0555L24.2124 38.7965C24.3149 38.3269 24.2705 37.4994 24.1274 37.2138C23.8191 36.598 23.4131 36.3634 22.4105 36.2218L22.035 36.1688L22.4817 35.6821C23.0149 35.1013 23.4979 34.1322 23.6076 33.4233C24.0018 30.8767 21.5508 29.0099 19.2239 30.0844C18.3932 30.468 17.4464 31.6006 17.6637 31.9507C17.709 32.0237 17.8345 32.0941 17.9428 32.1073C18.1012 32.1266 18.2033 32.0461 18.4669 31.694C18.8498 31.1822 19.1699 30.9203 19.7093 30.6767C20.6493 30.2522 21.9165 30.5973 22.4725 31.429C22.9727 32.1773 23.0433 33.3856 22.6359 34.2255C22.3216 34.8734 21.7947 35.4867 21.1021 36.0109C20.6497 36.3533 20.4888 36.5242 20.4705 36.6818C20.4345 36.9933 20.6739 37.0978 21.1754 36.9892C21.7228 36.8709 22.6227 36.8827 22.9267 37.0125C23.0665 37.0722 23.2491 37.1984 23.3325 37.2927C23.5081 37.4915 23.5843 38.1363 23.4996 38.7059L23.444 39.0804L20.6265 39.0251C16.1163 38.9366 15.6268 38.865 14.5307 38.1344C13.2244 37.2635 12.6006 36.0637 12.6068 34.434C12.6187 31.3741 15.0071 28.0207 18.2461 26.5162C19.6559 25.8614 21.2422 25.5097 22.7861 25.5097H23.8354L23.5932 24.8921C23.268 24.0633 23.2075 22.9925 23.447 22.3038C23.7369 21.4704 24.2332 20.9083 25.0558 20.4814C25.6742 20.1605 26.5805 20.0871 27.3674 20.2938ZM28.4322 25.1371C28.1632 24.9089 28.1171 24.5449 28.3202 24.2525C28.445 24.0727 28.8154 24.0138 29.1083 24.1274C29.2756 24.1921 29.6173 24.917 29.6183 25.2093C29.619 25.374 29.5721 25.4388 29.4258 25.4758C29.1736 25.5397 28.7272 25.3875 28.4322 25.1371Z"
         fill="#C4BFFB" />
      <path
         d="M11.3363 32.1935C12.2254 32.6008 12.4838 33.7 11.8959 34.5739C11.6016 35.0116 11.1841 35.247 10.6183 35.2944C10.0664 35.3405 9.7022 35.2061 9.3678 34.8329C9.05782 34.4868 8.96492 34.1418 9.02148 33.5476C9.07426 32.994 9.39909 32.5423 9.94559 32.2628C10.4495 32.0051 10.8785 31.9837 11.3363 32.1935Z"
         fill="#C4BFFB" />
   </symbol>
   <symbol id="iconProduct-3" viewBox="0 0 40 40">
      <path fill-rule="evenodd" clip-rule="evenodd"
         d="M18.421 3.10696C17.5686 3.40503 16.9157 3.97895 16.5447 4.75612C16.352 5.15994 16.3204 5.31269 16.2795 6.04438C16.2541 6.50098 16.2282 6.81171 16.2221 6.735C16.216 6.65821 16.1042 6.37699 15.9737 6.10996C15.3406 4.81474 13.8184 4.09943 12.4559 4.45674C11.2519 4.77256 10.3572 5.71322 10.1539 6.87722C10.0959 7.209 10.1137 7.78072 10.2356 9.49634C10.3215 10.7034 10.4053 11.8923 10.4221 12.1382C10.4475 12.5101 10.4185 12.427 10.2506 11.6448C10.0111 10.5297 9.76937 10.0322 9.21909 9.52208C9.01198 9.33004 8.62903 9.07373 8.36814 8.95256C7.91992 8.74449 7.84917 8.73231 7.08658 8.73231C6.323 8.73231 6.25366 8.74429 5.802 8.95401C4.73739 9.44832 4.00611 10.5481 4 11.6637C3.99909 11.838 4.42471 14.3061 4.94585 17.1485L5.89339 22.3163V25.3396C5.89339 28.0529 5.90784 28.4458 6.03432 29.1713C6.29058 30.6405 6.90915 32.1239 7.81176 33.4339C8.36933 34.2431 9.72922 35.5728 10.5791 36.1396C11.9348 37.0438 13.5957 37.6842 15.1777 37.9127C16.2163 38.0627 18.0571 38.0135 18.997 37.8107C22.6448 37.0237 25.5719 34.5848 26.9385 31.1938C27.111 30.7659 27.4284 29.6065 27.5526 28.9511C27.568 28.8698 29.3483 27.0017 31.5089 24.7999C35.7166 20.5119 35.7497 20.473 35.9379 19.5844C36.0758 18.9339 35.9851 18.3187 35.6554 17.6661C35.3203 17.003 34.8919 16.5886 34.1922 16.2509C33.7474 16.0361 33.6889 16.0258 32.9173 16.0258C31.6359 16.0258 31.5756 16.062 29.4884 18.0857L27.7807 19.7414L27.8235 19.4317C27.9412 18.5807 28.915 8.35546 28.915 7.96994C28.915 6.47862 27.7042 5.19104 26.1425 5.02171C24.7981 4.87598 23.3748 5.76627 22.9164 7.0396C22.8577 7.20288 22.7383 7.97558 22.6512 8.75681L22.4928 10.1772L22.4567 7.73462C22.422 5.39285 22.414 5.27671 22.2616 4.9229C21.9203 4.13101 21.4072 3.60023 20.6328 3.23824C20.2328 3.05123 20.0901 3.02246 19.4747 3.00444C18.9373 2.98875 18.6904 3.01276 18.421 3.10696ZM20.2901 4.24316C20.5705 4.38539 20.8156 4.57502 20.9613 4.76224C21.4227 5.35542 21.4049 5.03265 21.4049 12.7891C21.4049 20.4627 21.3824 20.0363 21.7954 20.1903C22.0143 20.2719 22.3443 20.1564 22.4485 19.9617C22.4931 19.8784 22.8264 17.0453 23.1889 13.666C23.814 7.84024 23.8578 7.50267 24.0331 7.15128C24.6356 5.94413 26.2569 5.67668 27.254 6.61988C27.6229 6.96894 27.8047 7.34455 27.8426 7.83583C27.8616 8.08161 27.6139 10.8838 27.2351 14.711C26.6432 20.6906 26.6038 21.1836 26.7062 21.3367C26.8601 21.567 27.1369 21.6598 27.378 21.5619C27.4836 21.519 28.4804 20.5683 29.5933 19.4492C31.343 17.6897 31.6736 17.3881 32.038 17.2191C33.0696 16.7406 34.2926 17.1746 34.7656 18.1871C34.9898 18.667 34.9724 19.4243 34.7265 19.879C34.5984 20.116 33.3057 21.4799 30.5716 24.263C28.3627 26.5114 26.5879 28.3727 26.5693 28.4602C26.551 28.5467 26.4685 28.94 26.3861 29.3343C25.8365 31.9638 24.0887 34.3413 21.7296 35.668C20.1409 36.5614 18.5656 36.9766 16.7619 36.9772C12.4476 36.9785 8.68322 34.2725 7.38179 30.2344C6.98122 28.9916 6.94621 28.5903 6.94621 25.2454V22.2071L5.99867 17.0337C5.47752 14.1883 5.05113 11.7736 5.05113 11.6677C5.05113 11.5618 5.0983 11.3194 5.156 11.1291C5.56463 9.78017 7.32311 9.27265 8.41474 10.1887C8.96045 10.6466 8.97709 10.7061 10.0056 15.8749C10.5267 18.4934 10.9857 20.7367 11.0257 20.86C11.181 21.3382 11.8926 21.3628 12.0486 20.8953C12.0915 20.7667 11.953 18.5053 11.6227 13.9426C11.1356 7.21485 11.1337 7.17839 11.2583 6.79066C11.4325 6.24895 12.0302 5.65941 12.5621 5.50453C13.3724 5.26866 14.0076 5.42595 14.6035 6.01012C14.9196 6.31995 15.0311 6.48743 15.115 6.77807C15.1845 7.01862 15.3966 9.3954 15.7162 13.5144C16.2674 20.6179 16.2038 20.2033 16.7481 20.2435C16.96 20.2591 17.0577 20.2291 17.1622 20.1159C17.2954 19.9716 17.2998 19.7815 17.334 12.6987L17.3691 5.4296L17.5439 5.09403C17.7558 4.68745 18.2229 4.26972 18.6201 4.13177C18.7814 4.07576 19.1236 4.02745 19.3809 4.0245C19.7778 4.01989 19.9152 4.05291 20.2901 4.24316Z"
         fill="#211747" />
      <path
         d="M20.2901 4.24316C20.5705 4.38539 20.8156 4.57502 20.9613 4.76224C21.4227 5.35542 21.4049 5.03265 21.4049 12.7891C21.4049 20.4627 21.3824 20.0363 21.7954 20.1903C22.0143 20.2719 22.3443 20.1564 22.4485 19.9617C22.4931 19.8784 22.8264 17.0453 23.1889 13.666C23.814 7.84024 23.8578 7.50267 24.0331 7.15128C24.6356 5.94413 26.2569 5.67668 27.254 6.61988C27.6229 6.96894 27.8047 7.34455 27.8426 7.83583C27.8616 8.08161 27.6139 10.8838 27.2351 14.711C26.6432 20.6906 26.6038 21.1836 26.7062 21.3367C26.8601 21.567 27.1369 21.6598 27.378 21.5619C27.4836 21.519 28.4804 20.5683 29.5933 19.4492C31.343 17.6897 31.6736 17.3881 32.038 17.2191C33.0696 16.7406 34.2926 17.1746 34.7656 18.1871C34.9898 18.667 34.9724 19.4243 34.7265 19.879C34.5984 20.116 33.3057 21.4799 30.5716 24.263C28.3627 26.5114 26.5879 28.3727 26.5693 28.4602C26.551 28.5467 26.4685 28.94 26.3861 29.3343C25.8365 31.9638 24.0887 34.3413 21.7296 35.668C20.1409 36.5614 18.5656 36.9766 16.7619 36.9772C12.4476 36.9785 8.68322 34.2725 7.38179 30.2344C6.98122 28.9916 6.94621 28.5903 6.94621 25.2454V22.2071L5.99867 17.0337C5.47752 14.1883 5.05113 11.7736 5.05113 11.6677C5.05113 11.5618 5.0983 11.3194 5.156 11.1291C5.56463 9.78017 7.32311 9.27265 8.41474 10.1887C8.96045 10.6466 8.97709 10.7061 10.0056 15.8749C10.5267 18.4934 10.9857 20.7367 11.0257 20.86C11.181 21.3382 11.8926 21.3628 12.0486 20.8953C12.0915 20.7667 11.953 18.5053 11.6227 13.9426C11.1356 7.21485 11.1337 7.17839 11.2583 6.79066C11.4325 6.24895 12.0302 5.65941 12.5621 5.50453C13.3724 5.26866 14.0076 5.42595 14.6035 6.01012C14.9196 6.31995 15.0311 6.48743 15.115 6.77807C15.1845 7.01862 15.3966 9.3954 15.7162 13.5144C16.2674 20.6179 16.2038 20.2033 16.7481 20.2435C16.96 20.2591 17.0577 20.2291 17.1622 20.1159C17.2954 19.9716 17.2998 19.7815 17.334 12.6987L17.3691 5.4296L17.5439 5.09403C17.7558 4.68745 18.2229 4.26972 18.6201 4.13177C18.7814 4.07576 19.1236 4.02745 19.3809 4.0245C19.7778 4.01989 19.9152 4.05291 20.2901 4.24316Z"
         fill="#FBD1BF" />
   </symbol>
   <symbol id="iconProduct-4" viewBox="0 0 40 40">
      <path fill-rule="evenodd" clip-rule="evenodd"
         d="M3.73752 6.38269C2.89365 8.23461 2.33737 10.2509 2.07494 12.409C1.96302 13.3297 1.97959 15.8564 2.10375 16.7986C2.38189 18.909 2.91646 20.7796 3.77359 22.6418C4.14502 23.4488 4.47313 24.0482 5.21027 25.2666C5.95199 26.4925 5.98137 26.5358 6.02436 26.4665C6.04431 26.4343 6.21396 26.605 6.40139 26.8457C6.88823 27.4712 8.40226 28.9759 9.15907 29.5864C11.1786 31.2157 13.4394 32.4187 15.8224 33.1321C16.7872 33.421 17.5686 33.5947 18.9134 33.8193L19.9954 34L20.7711 33.8742C22.8669 33.5343 24.1738 33.2003 25.5858 32.6436C30.9977 30.51 35.1333 26.1911 36.992 20.7321C37.4264 19.4562 37.753 17.9718 37.9327 16.4565C38.0225 15.7008 38.0224 13.3109 37.9326 12.5231C37.6981 10.464 37.1482 8.40409 36.3545 6.61123L36.0843 6.00103L35.7034 6.0305C33.7053 6.18516 32.2884 6.45058 30.6789 6.97191C26.5529 8.30838 22.9507 11.0198 20.5207 14.6181C20.2719 14.9864 20.0364 15.2879 19.9973 15.2879C19.9582 15.2879 19.7608 15.0378 19.5586 14.7321C16.4011 9.95844 11.1413 6.74941 5.48459 6.14543C5.04445 6.09839 4.51051 6.04646 4.29809 6.02999L3.91186 6L3.73752 6.38269ZM6.11336 7.1659C12.0418 8.07305 17.208 11.8341 19.9094 17.2094C20.8008 18.9832 21.3737 20.8119 21.6917 22.8983C21.8485 23.9271 21.9057 26.0106 21.8068 27.0956C21.6404 28.9219 21.1519 30.9457 20.5059 32.4848L20.3042 32.9653L19.6605 32.9315L15.9947 25.6435C13.9785 21.635 12.2919 18.3185 12.2467 18.2734C12.2015 18.2283 12.0749 18.1769 11.9652 18.1592C11.6809 18.1132 11.4007 18.3491 11.4007 18.6345C11.4007 18.787 12.2485 20.517 14.9019 25.7784C16.8275 29.5969 18.3895 32.7349 18.373 32.7517C18.3313 32.7942 17.1989 32.5499 16.4211 32.3304C9.74467 30.4469 4.65032 24.9435 3.28366 18.1382C3.02707 16.8605 2.93115 15.8691 2.93064 14.4898C2.92984 12.3941 3.22147 10.5698 3.86477 8.6466C4.10026 7.94257 4.40905 7.15336 4.49056 7.04744C4.54331 6.97881 5.20741 7.02726 6.11336 7.1659ZM35.7947 7.70599C36.4575 9.43888 36.8465 11.0831 37.0126 12.8533C37.1099 13.8915 37.0527 16.124 36.904 17.0854C36.5361 19.4648 35.8183 21.5763 34.7005 23.5683C32.3199 27.8107 28.324 30.9738 23.6656 32.3035C22.8149 32.5464 21.5868 32.8194 21.5428 32.7755C21.5303 32.7631 21.5938 32.562 21.684 32.3286C22.0374 31.4131 22.4649 29.8415 22.6057 28.939C22.6447 28.6893 22.7235 28.4071 22.7805 28.3118C22.8377 28.2165 22.9507 27.8317 23.0316 27.4567C23.8807 23.5223 25.7757 19.9238 28.3452 17.3664C28.7245 16.9889 29.2581 16.5073 29.5308 16.2961C30.0963 15.8582 30.1771 15.6997 29.994 15.3871C29.8723 15.1792 29.6634 15.0831 29.4494 15.1367C29.0936 15.2258 27.5179 16.6491 26.6619 17.6547C25.2681 19.2919 23.9554 21.4674 23.1888 23.4105C23.0282 23.8176 22.8854 24.1126 22.8714 24.0661C22.8573 24.0195 22.8149 23.6736 22.7772 23.2974C22.5626 21.1592 21.9066 18.9263 20.8829 16.8515C20.5736 16.2243 20.5391 16.1232 20.6194 16.0784C20.6702 16.05 20.934 15.6916 21.2057 15.282C24.0052 11.0593 28.3438 8.19716 33.3796 7.25096C34.3074 7.07663 35.4218 6.9686 35.5013 7.04533C35.5368 7.07948 35.6687 7.37677 35.7947 7.70599ZM22.8901 24.4911C22.8901 24.5364 22.8643 24.5891 22.8329 24.6085C22.8015 24.6279 22.7758 24.5909 22.7758 24.5264C22.7758 24.4618 22.8015 24.409 22.8329 24.409C22.8643 24.409 22.8901 24.4459 22.8901 24.4911Z"
         fill="#211747" />
      <path
         d="M35.7947 7.70599C36.4575 9.43888 36.8465 11.0831 37.0126 12.8533C37.1099 13.8915 37.0527 16.124 36.904 17.0854C36.5361 19.4648 35.8183 21.5763 34.7005 23.5683C32.3199 27.8107 28.324 30.9738 23.6656 32.3035C22.8149 32.5464 21.5868 32.8194 21.5428 32.7755C21.5303 32.7631 21.5938 32.562 21.684 32.3286C22.0374 31.4131 22.4649 29.8415 22.6057 28.939C22.6447 28.6893 22.7235 28.4071 22.7805 28.3118C22.8377 28.2165 22.9507 27.8317 23.0316 27.4567C23.8807 23.5223 25.7757 19.9238 28.3452 17.3664C28.7245 16.9889 29.2581 16.5073 29.5308 16.2961C30.0963 15.8582 30.1771 15.6997 29.994 15.3871C29.8723 15.1792 29.6634 15.0831 29.4494 15.1367C29.0936 15.2258 27.5179 16.6491 26.6619 17.6547C25.2681 19.2919 23.9554 21.4674 23.1888 23.4105C23.0282 23.8176 22.8854 24.1126 22.8714 24.0661C22.8573 24.0195 22.8149 23.6736 22.7772 23.2974C22.5626 21.1592 21.9066 18.9263 20.8829 16.8515C20.5736 16.2243 20.5391 16.1232 20.6194 16.0784C20.6702 16.05 20.934 15.6916 21.2057 15.282C24.0052 11.0593 28.3438 8.19716 33.3796 7.25096C34.3074 7.07663 35.4218 6.9686 35.5013 7.04533C35.5368 7.07948 35.6687 7.37677 35.7947 7.70599Z"
         fill="#BFFBC5" />
      <path
         d="M6.11336 7.1659C12.0418 8.07305 17.208 11.8341 19.9094 17.2094C20.8008 18.9832 21.3737 20.8119 21.6917 22.8983C21.8485 23.9271 21.9057 26.0106 21.8068 27.0956C21.6404 28.9219 21.1519 30.9457 20.5059 32.4848L20.3042 32.9653L19.6605 32.9315L15.9947 25.6435C13.9785 21.635 12.2919 18.3185 12.2467 18.2734C12.2015 18.2283 12.0749 18.1769 11.9652 18.1592C11.6809 18.1132 11.4007 18.3491 11.4007 18.6345C11.4007 18.787 12.2485 20.517 14.9019 25.7784C16.8275 29.5969 18.3895 32.7349 18.373 32.7517C18.3313 32.7942 17.1989 32.5499 16.4211 32.3304C9.74467 30.4469 4.65032 24.9435 3.28366 18.1382C3.02707 16.8605 2.93115 15.8691 2.93064 14.4898C2.92984 12.3941 3.22147 10.5698 3.86477 8.6466C4.10026 7.94257 4.40905 7.15336 4.49056 7.04744C4.54331 6.97881 5.20741 7.02726 6.11336 7.1659Z"
         fill="#BFFBC5" />
   </symbol>
   <symbol id="iconHand" viewBox="0 0 70 70">
      <path fill-rule="evenodd" clip-rule="evenodd"
         d="M27.5888 1.2017C26.0171 1.76377 24.8132 2.84602 24.1291 4.31152C23.7739 5.07304 23.7159 5.36108 23.6405 6.74084C23.5935 7.60186 23.5458 8.18781 23.5345 8.04314C23.5232 7.89835 23.317 7.36804 23.0765 6.86448C21.9091 4.42207 19.1027 3.07321 16.5907 3.74699C14.3708 4.34254 12.7211 6.11635 12.3462 8.31133C12.2393 8.93699 12.2721 10.0151 12.4969 13.2503C12.6552 15.5265 12.8098 17.7683 12.8408 18.2321C12.8875 18.9334 12.8342 18.7766 12.5245 17.3016C12.0829 15.1989 11.6373 14.2608 10.6227 13.2988C10.2408 12.9366 9.53475 12.4533 9.05376 12.2249C8.22733 11.8325 8.0969 11.8095 6.69086 11.8095C5.28304 11.8095 5.15518 11.8321 4.32242 12.2276C2.35955 13.1597 1.01124 15.2336 1 17.3374C0.998306 17.666 1.78304 22.3202 2.7439 27.68L4.49091 37.4249V43.1261C4.49091 48.2429 4.51757 48.9836 4.75078 50.3516C5.22326 53.122 6.36373 55.9194 8.02793 58.3896C9.05594 59.9157 11.5632 62.423 13.1301 63.4919C15.6298 65.197 18.6921 66.4046 21.6087 66.8353C23.5238 67.1181 26.9179 67.0255 28.6506 66.6432C35.3764 65.1589 40.7731 60.56 43.2928 54.1656C43.6108 53.3586 44.1961 51.1723 44.425 49.9365C44.4533 49.7832 47.7361 46.2603 51.7196 42.1084C59.4775 34.0226 59.5385 33.949 59.8856 32.2736C60.1396 31.0468 59.9727 29.8867 59.3646 28.6561C58.7468 27.4056 57.9569 26.6243 56.667 25.9874C55.8469 25.5825 55.739 25.5629 54.3162 25.5629C51.9538 25.5629 51.8426 25.6312 47.994 29.4473L44.8455 32.5696L44.9245 31.9855C45.1415 30.381 46.937 11.0989 46.937 10.3719C46.937 7.55969 44.7045 5.13168 41.8253 4.81236C39.3465 4.53755 36.722 6.21639 35.8771 8.61755C35.7688 8.92544 35.5488 10.3825 35.3883 11.8557L35.0961 14.5343L35.0295 9.92816C34.9657 5.51224 34.9508 5.29323 34.6697 4.62604C34.0406 3.13276 33.0944 2.13187 31.6668 1.44925C30.9293 1.09658 30.6662 1.04236 29.5315 1.00837C28.5408 0.978781 28.0853 1.02406 27.5888 1.2017ZM31.0348 3.34424C31.5518 3.61243 32.0037 3.97002 32.2724 4.32307C33.1231 5.44165 33.0901 4.833 33.0901 19.4594C33.0901 33.9297 33.0486 33.1258 33.8102 33.4159C34.214 33.5698 34.8224 33.3522 35.0146 32.9849C35.0968 32.8278 35.7111 27.4856 36.3797 21.1131C37.5322 10.1273 37.6127 9.49075 37.936 8.82814C39.0469 6.5518 42.0362 6.04745 43.8746 7.82608C44.5546 8.48428 44.8901 9.19259 44.9597 10.119C44.9946 10.5825 44.5381 15.8665 43.8396 23.0836C42.7484 34.3595 42.6758 35.2891 42.8646 35.578C43.1482 36.012 43.6586 36.1869 44.1032 36.0024C44.2979 35.9217 46.1357 34.1287 48.1877 32.0185C51.4137 28.7005 52.0231 28.1319 52.6951 27.813C54.5972 26.9109 56.852 27.7293 57.7242 29.6385C58.1374 30.5434 58.1053 31.9716 57.6521 32.829C57.4159 33.2758 55.0324 35.8478 49.9914 41.0961C45.9187 45.3358 42.6464 48.8457 42.6122 49.0107C42.5783 49.1737 42.4264 49.9155 42.2745 50.659C41.2612 55.6174 38.0385 60.1008 33.6889 62.6027C30.7599 64.2875 27.8554 65.0704 24.5296 65.0714C16.5752 65.0739 9.63466 59.9711 7.23517 52.3564C6.49663 50.0127 6.43206 49.256 6.43206 42.9484V37.2191L4.68503 27.4635C3.72419 22.0979 2.93801 17.5445 2.93801 17.3448C2.93801 17.1451 3.02498 16.6881 3.13137 16.3292C3.88478 13.7855 7.12699 12.8285 9.13967 14.5558C10.1458 15.4193 10.1765 15.5315 12.0728 25.2784C13.0336 30.2162 13.8799 34.4466 13.9537 34.6791C14.2399 35.5807 15.5519 35.6269 15.8395 34.7456C15.9188 34.5029 15.6633 30.2385 15.0543 21.6346C14.1562 8.94801 14.1527 8.87924 14.3826 8.14811C14.7037 7.12658 15.8056 6.01489 16.7864 5.72284C18.2803 5.27805 19.4515 5.57464 20.5502 6.67623C21.1329 7.26048 21.3385 7.5763 21.4933 8.12438C21.6214 8.57797 22.0125 13.0599 22.6017 20.8271C23.618 34.2224 23.5008 33.4406 24.5043 33.5165C24.895 33.5459 25.075 33.489 25.2677 33.2758C25.5135 33.0037 25.5216 32.6453 25.5846 19.289L25.6492 5.58152L25.9715 4.94873C26.3622 4.18204 27.2235 3.39433 27.9559 3.13418C28.2532 3.02856 28.8843 2.93748 29.3585 2.93189C30.0902 2.92321 30.3437 2.98548 31.0348 3.34424Z" />
      <path fill-rule="evenodd" clip-rule="evenodd"
         d="M27.5888 1.2017C26.0171 1.76377 24.8132 2.84602 24.1291 4.31152C23.7739 5.07304 23.7159 5.36108 23.6405 6.74084C23.5935 7.60186 23.5458 8.18781 23.5345 8.04314C23.5232 7.89835 23.317 7.36804 23.0765 6.86448C21.9091 4.42207 19.1027 3.07321 16.5907 3.74699C14.3708 4.34254 12.7211 6.11635 12.3462 8.31133C12.2393 8.93699 12.2721 10.0151 12.4969 13.2503C12.6552 15.5265 12.8098 17.7683 12.8408 18.2321C12.8875 18.9334 12.8342 18.7766 12.5245 17.3016C12.0829 15.1989 11.6373 14.2608 10.6227 13.2988C10.2408 12.9366 9.53475 12.4533 9.05376 12.2249C8.22733 11.8325 8.0969 11.8095 6.69086 11.8095C5.28304 11.8095 5.15518 11.8321 4.32242 12.2276C2.35955 13.1597 1.01124 15.2336 1 17.3374C0.998306 17.666 1.78304 22.3202 2.7439 27.68L4.49091 37.4249V43.1261C4.49091 48.2429 4.51757 48.9836 4.75078 50.3516C5.22326 53.122 6.36373 55.9194 8.02793 58.3896C9.05594 59.9157 11.5632 62.423 13.1301 63.4919C15.6298 65.197 18.6921 66.4046 21.6087 66.8353C23.5238 67.1181 26.9179 67.0255 28.6506 66.6432C35.3764 65.1589 40.7731 60.56 43.2928 54.1656C43.6108 53.3586 44.1961 51.1723 44.425 49.9365C44.4533 49.7832 47.7361 46.2603 51.7196 42.1084C59.4775 34.0226 59.5385 33.949 59.8856 32.2736C60.1396 31.0468 59.9727 29.8867 59.3646 28.6561C58.7468 27.4056 57.9569 26.6243 56.667 25.9874C55.8469 25.5825 55.739 25.5629 54.3162 25.5629C51.9538 25.5629 51.8426 25.6312 47.994 29.4473L44.8455 32.5696L44.9245 31.9855C45.1415 30.381 46.937 11.0989 46.937 10.3719C46.937 7.55969 44.7045 5.13168 41.8253 4.81236C39.3465 4.53755 36.722 6.21639 35.8771 8.61755C35.7688 8.92544 35.5488 10.3825 35.3883 11.8557L35.0961 14.5343L35.0295 9.92816C34.9657 5.51224 34.9508 5.29323 34.6697 4.62604C34.0406 3.13276 33.0944 2.13187 31.6668 1.44925C30.9293 1.09658 30.6662 1.04236 29.5315 1.00837C28.5408 0.978781 28.0853 1.02406 27.5888 1.2017ZM31.0348 3.34424C31.5518 3.61243 32.0037 3.97002 32.2724 4.32307C33.1231 5.44165 33.0901 4.833 33.0901 19.4594C33.0901 33.9297 33.0486 33.1258 33.8102 33.4159C34.214 33.5698 34.8224 33.3522 35.0146 32.9849C35.0968 32.8278 35.7111 27.4856 36.3797 21.1131C37.5322 10.1273 37.6127 9.49075 37.936 8.82814C39.0469 6.5518 42.0362 6.04745 43.8746 7.82608C44.5546 8.48428 44.8901 9.19259 44.9597 10.119C44.9946 10.5825 44.5381 15.8665 43.8396 23.0836C42.7484 34.3595 42.6758 35.2891 42.8646 35.578C43.1482 36.012 43.6586 36.1869 44.1032 36.0024C44.2979 35.9217 46.1357 34.1287 48.1877 32.0185C51.4137 28.7005 52.0231 28.1319 52.6951 27.813C54.5972 26.9109 56.852 27.7293 57.7242 29.6385C58.1374 30.5434 58.1053 31.9716 57.6521 32.829C57.4159 33.2758 55.0324 35.8478 49.9914 41.0961C45.9187 45.3358 42.6464 48.8457 42.6122 49.0107C42.5783 49.1737 42.4264 49.9155 42.2745 50.659C41.2612 55.6174 38.0385 60.1008 33.6889 62.6027C30.7599 64.2875 27.8554 65.0704 24.5296 65.0714C16.5752 65.0739 9.63466 59.9711 7.23517 52.3564C6.49663 50.0127 6.43206 49.256 6.43206 42.9484V37.2191L4.68503 27.4635C3.72419 22.0979 2.93801 17.5445 2.93801 17.3448C2.93801 17.1451 3.02498 16.6881 3.13137 16.3292C3.88478 13.7855 7.12699 12.8285 9.13967 14.5558C10.1458 15.4193 10.1765 15.5315 12.0728 25.2784C13.0336 30.2162 13.8799 34.4466 13.9537 34.6791C14.2399 35.5807 15.5519 35.6269 15.8395 34.7456C15.9188 34.5029 15.6633 30.2385 15.0543 21.6346C14.1562 8.94801 14.1527 8.87924 14.3826 8.14811C14.7037 7.12658 15.8056 6.01489 16.7864 5.72284C18.2803 5.27805 19.4515 5.57464 20.5502 6.67623C21.1329 7.26048 21.3385 7.5763 21.4933 8.12438C21.6214 8.57797 22.0125 13.0599 22.6017 20.8271C23.618 34.2224 23.5008 33.4406 24.5043 33.5165C24.895 33.5459 25.075 33.489 25.2677 33.2758C25.5135 33.0037 25.5216 32.6453 25.5846 19.289L25.6492 5.58152L25.9715 4.94873C26.3622 4.18204 27.2235 3.39433 27.9559 3.13418C28.2532 3.02856 28.8843 2.93748 29.3585 2.93189C30.0902 2.92321 30.3437 2.98548 31.0348 3.34424Z"
         fill="white" />
      <path
         d="M27.5888 1.2017L27.9255 2.1433L27.9257 2.14325L27.5888 1.2017ZM24.1291 4.31152L23.223 3.88854L23.2229 3.8888L24.1291 4.31152ZM23.6405 6.74084L22.6419 6.68622L22.6419 6.68634L23.6405 6.74084ZM23.5345 8.04314L22.5375 8.12072L22.5375 8.12148L23.5345 8.04314ZM23.0765 6.86448L23.9788 6.43341L23.9787 6.43325L23.0765 6.86448ZM16.5907 3.74699L16.3316 2.78113L16.3315 2.78115L16.5907 3.74699ZM12.3462 8.31133L13.3319 8.4797L13.3319 8.4797L12.3462 8.31133ZM12.4969 13.2503L11.4993 13.3196L11.4993 13.3196L12.4969 13.2503ZM12.8408 18.2321L13.8386 18.1657L13.8385 18.1656L12.8408 18.2321ZM12.5245 17.3016L13.5032 17.0961L13.5031 17.0961L12.5245 17.3016ZM10.6227 13.2988L9.93463 14.0244L9.93466 14.0244L10.6227 13.2988ZM9.05376 12.2249L9.48284 11.3216L9.48265 11.3215L9.05376 12.2249ZM4.32242 12.2276L4.75139 13.1309L4.75142 13.1309L4.32242 12.2276ZM1 17.3374L1.70039e-05 17.332L1.60644e-05 17.3322L1 17.3374ZM2.7439 27.68L1.75959 27.8565L1.75959 27.8565L2.7439 27.68ZM4.49091 37.4249H5.49091V37.336L5.47522 37.2485L4.49091 37.4249ZM4.75078 50.3516L3.765 50.5196L3.76501 50.5197L4.75078 50.3516ZM8.02793 58.3896L8.85731 57.8309L8.85727 57.8309L8.02793 58.3896ZM13.1301 63.4919L12.5666 64.318L12.5666 64.318L13.1301 63.4919ZM21.6087 66.8353L21.4626 67.8246L21.4627 67.8246L21.6087 66.8353ZM28.6506 66.6432L28.8661 67.6197L28.8661 67.6197L28.6506 66.6432ZM43.2928 54.1656L42.3624 53.799L42.3624 53.799L43.2928 54.1656ZM44.425 49.9365L45.4083 50.1186L45.4083 50.1184L44.425 49.9365ZM51.7196 42.1084L50.998 41.4161L50.998 41.4161L51.7196 42.1084ZM59.8856 32.2736L60.8648 32.4765L60.8649 32.4763L59.8856 32.2736ZM59.3646 28.6561L58.468 29.099L58.4681 29.0991L59.3646 28.6561ZM56.667 25.9874L57.1097 25.0907L57.1097 25.0907L56.667 25.9874ZM47.994 29.4473L47.2899 28.7372L47.2899 28.7372L47.994 29.4473ZM44.8455 32.5696L43.8545 32.4356L43.4601 35.3518L45.5496 33.2797L44.8455 32.5696ZM44.9245 31.9855L45.9155 32.1195L45.9155 32.1195L44.9245 31.9855ZM41.8253 4.81236L41.9356 3.81846L41.9355 3.81845L41.8253 4.81236ZM35.8771 8.61755L36.8204 8.94953L36.8205 8.94946L35.8771 8.61755ZM35.3883 11.8557L36.3824 11.9642L36.3824 11.964L35.3883 11.8557ZM35.0961 14.5343L34.0962 14.5487L36.0902 14.6427L35.0961 14.5343ZM35.0295 9.92816L34.0296 9.9426L34.0296 9.94261L35.0295 9.92816ZM34.6697 4.62604L35.5913 4.23786L35.5913 4.23777L34.6697 4.62604ZM31.6668 1.44925L31.2354 2.35141L31.2354 2.35143L31.6668 1.44925ZM29.5315 1.00837L29.5614 0.00882004L29.5613 0.00881751L29.5315 1.00837ZM31.0348 3.34424L30.5741 4.2318L30.5744 4.23191L31.0348 3.34424ZM32.2724 4.32307L33.0683 3.71774L33.0682 3.71755L32.2724 4.32307ZM33.8102 33.4159L33.4542 34.3504L33.4542 34.3504L33.8102 33.4159ZM35.0146 32.9849L34.1287 32.521L34.1285 32.5214L35.0146 32.9849ZM36.3797 21.1131L37.3742 21.2174L37.3742 21.2174L36.3797 21.1131ZM37.936 8.82814L37.0373 8.38954L37.0373 8.38963L37.936 8.82814ZM43.8746 7.82608L44.57 7.10753L44.5699 7.1074L43.8746 7.82608ZM44.9597 10.119L43.9625 10.1939L43.9625 10.1942L44.9597 10.119ZM43.8396 23.0836L42.8443 22.9873L42.8443 22.9873L43.8396 23.0836ZM42.8646 35.578L43.7018 35.0311L43.7016 35.0307L42.8646 35.578ZM44.1032 36.0024L43.7202 35.0786L43.7198 35.0788L44.1032 36.0024ZM48.1877 32.0185L48.9047 32.7157L48.9047 32.7156L48.1877 32.0185ZM52.6951 27.813L52.2665 26.9095L52.2664 26.9096L52.6951 27.813ZM57.7242 29.6385L58.6339 29.2231L58.6338 29.2229L57.7242 29.6385ZM57.6521 32.829L58.5361 33.2965L58.5362 33.2963L57.6521 32.829ZM49.9914 41.0961L50.7126 41.7888L50.7126 41.7888L49.9914 41.0961ZM42.6122 49.0107L43.5912 49.2146L43.5914 49.2136L42.6122 49.0107ZM42.2745 50.659L43.2542 50.8592L43.2542 50.8591L42.2745 50.659ZM33.6889 62.6027L34.1875 63.4695L34.1875 63.4695L33.6889 62.6027ZM24.5296 65.0714L24.5293 64.0714L24.5293 64.0714L24.5296 65.0714ZM7.23517 52.3564L6.28141 52.657L6.28141 52.657L7.23517 52.3564ZM6.43206 37.2191H7.43206V37.1302L7.41641 37.0428L6.43206 37.2191ZM4.68503 27.4635L3.70069 27.6398L3.70069 27.6398L4.68503 27.4635ZM3.13137 16.3292L4.09013 16.6134L4.09019 16.6132L3.13137 16.3292ZM9.13967 14.5558L8.4884 15.3147L8.48841 15.3147L9.13967 14.5558ZM12.0728 25.2784L11.0913 25.4694L11.0913 25.4694L12.0728 25.2784ZM13.9537 34.6791L13.0005 34.9815L13.0006 34.9817L13.9537 34.6791ZM15.8395 34.7456L14.8889 34.4353L14.8889 34.4353L15.8395 34.7456ZM15.0543 21.6346L16.0518 21.564L16.0518 21.564L15.0543 21.6346ZM14.3826 8.14811L13.4286 7.84817L13.4286 7.84822L14.3826 8.14811ZM16.7864 5.72284L16.5011 4.76441L16.5011 4.76442L16.7864 5.72284ZM21.4933 8.12438L20.5309 8.39613L20.5309 8.39617L21.4933 8.12438ZM22.6017 20.8271L21.6046 20.9028L21.6046 20.9028L22.6017 20.8271ZM24.5043 33.5165L24.4289 34.5136L24.4292 34.5136L24.5043 33.5165ZM25.2677 33.2758L26.0096 33.9462L26.0097 33.9462L25.2677 33.2758ZM25.5846 19.289L26.5846 19.2937L26.5846 19.2937L25.5846 19.289ZM25.6492 5.58152L24.7581 5.12767L24.6503 5.33931L24.6492 5.57681L25.6492 5.58152ZM25.9715 4.94873L25.0805 4.49473L25.0804 4.49488L25.9715 4.94873ZM27.9559 3.13418L28.2906 4.07651L28.2908 4.07646L27.9559 3.13418ZM29.3585 2.93189L29.3703 3.93182L29.3704 3.93182L29.3585 2.93189ZM27.2521 0.260099C25.4379 0.908872 24.024 2.17257 23.223 3.88854L25.0353 4.7345C25.6024 3.51946 26.5963 2.61866 27.9255 2.1433L27.2521 0.260099ZM23.2229 3.8888C23.0316 4.29876 22.8907 4.644 22.7995 5.09712C22.7149 5.51795 22.6792 6.00475 22.6419 6.68622L24.639 6.79545C24.6772 6.09717 24.7082 5.75007 24.7602 5.49155C24.8058 5.26534 24.8714 5.0858 25.0354 4.73425L23.2229 3.8888ZM22.6419 6.68634C22.6187 7.11273 22.5956 7.46459 22.5774 7.68805C22.5729 7.74347 22.5689 7.7887 22.5654 7.82379C22.5637 7.84125 22.5622 7.85508 22.561 7.86561C22.5604 7.87081 22.56 7.87479 22.5596 7.87768C22.5592 7.88062 22.5591 7.88187 22.5591 7.88168C22.5591 7.88164 22.5595 7.87887 22.5603 7.87398C22.561 7.86959 22.5627 7.85963 22.5656 7.846C22.5679 7.83473 22.5739 7.80705 22.5846 7.77138C22.5883 7.7591 22.6198 7.64676 22.6993 7.52309C22.7328 7.47095 22.8493 7.29554 23.0818 7.17587C23.4017 7.01119 23.7854 7.03131 24.0863 7.22828C24.305 7.37143 24.4025 7.55787 24.4305 7.61318C24.4694 7.69021 24.4895 7.75539 24.4985 7.78698C24.5172 7.85223 24.5243 7.90382 24.5264 7.91911C24.5294 7.9411 24.5308 7.95757 24.5314 7.96481L22.5375 8.12148C22.5381 8.1282 22.5439 8.22589 22.5755 8.33666C22.5851 8.36997 22.6057 8.43653 22.6451 8.5146C22.6736 8.57096 22.7717 8.7581 22.9909 8.90161C23.2923 9.09894 23.6766 9.11909 23.9971 8.95411C24.2302 8.83413 24.3473 8.65809 24.3814 8.60498C24.4622 8.47939 24.495 8.3638 24.5 8.34699C24.5121 8.30678 24.5195 8.27328 24.5233 8.25493C24.5313 8.21686 24.5364 8.18275 24.5394 8.16186C24.5508 8.08095 24.5613 7.96726 24.5708 7.8502C24.591 7.60159 24.6152 7.22996 24.639 6.79533L22.6419 6.68634ZM24.5315 7.96557C24.5188 7.80237 24.4696 7.64337 24.4454 7.56695C24.4121 7.46187 24.3697 7.34493 24.3235 7.22611C24.2307 6.98725 24.1089 6.7058 23.9788 6.43341L22.1742 7.29556C22.2846 7.52672 22.3862 7.76221 22.4594 7.95059C22.4962 8.04539 22.5225 8.11965 22.5386 8.17047C22.5424 8.18254 22.5453 8.19201 22.5473 8.19905C22.5493 8.20624 22.5502 8.20954 22.5501 8.20944C22.5501 8.20929 22.5497 8.20777 22.5491 8.20501C22.5485 8.20229 22.5476 8.19771 22.5464 8.19149C22.5445 8.18105 22.5402 8.15591 22.5375 8.12072L24.5315 7.96557ZM23.9787 6.43325C22.6161 3.58239 19.3365 1.97515 16.3316 2.78113L16.8497 4.71286C18.8689 4.17127 21.2021 5.26176 22.1742 7.29572L23.9787 6.43325ZM16.3315 2.78115C13.7503 3.47366 11.8038 5.54731 11.3604 8.14297L13.3319 8.4797C13.6384 6.68538 14.9913 5.21143 16.8498 4.71284L16.3315 2.78115ZM11.3604 8.14296C11.2894 8.55886 11.2743 9.06753 11.2976 9.83273C11.3213 10.6065 11.387 11.7026 11.4993 13.3196L13.4945 13.181C13.3821 11.5628 13.319 10.5022 13.2967 9.77172C13.2742 9.03266 13.2961 8.68946 13.3319 8.4797L11.3604 8.14296ZM11.4993 13.3196C11.6576 15.5964 11.8122 17.8366 11.843 18.2987L13.8385 18.1656C13.8075 17.7 13.6527 15.4565 13.4945 13.1809L11.4993 13.3196ZM11.843 18.2986C11.8558 18.4915 11.8554 18.5479 11.856 18.5364C11.8564 18.529 11.8575 18.5127 11.8601 18.4905C11.8624 18.4714 11.8682 18.4284 11.8824 18.3735C11.8918 18.3374 11.9276 18.1999 12.0324 18.0527C12.1516 17.8852 12.4741 17.5737 12.981 17.6444C13.3604 17.6973 13.565 17.9422 13.6035 17.988C13.6703 18.0676 13.7078 18.1386 13.721 18.1642C13.7379 18.1972 13.7486 18.223 13.7534 18.2351C13.7588 18.2486 13.762 18.258 13.7631 18.2612C13.7649 18.2665 13.7584 18.2472 13.7424 18.1839C13.7279 18.1264 13.7094 18.0486 13.6864 17.947C13.6405 17.744 13.5804 17.4641 13.5032 17.0961L11.5458 17.507C11.6922 18.2041 11.7982 18.6952 11.8695 18.9048C11.8802 18.9363 11.9039 19.0039 11.9421 19.0784C11.9597 19.1126 12.0013 19.1901 12.0719 19.2742C12.1141 19.3245 12.3222 19.5719 12.7048 19.6252C13.2148 19.6963 13.5402 19.3833 13.6619 19.2123C13.7692 19.0615 13.8073 18.9184 13.8186 18.8748C13.8466 18.7664 13.8516 18.6726 13.8532 18.6436C13.8603 18.5104 13.8491 18.3235 13.8386 18.1657L11.843 18.2986ZM13.5031 17.0961C13.2767 16.0177 13.0356 15.1671 12.6917 14.4433C12.3376 13.6979 11.8932 13.1253 11.3108 12.5731L9.93466 14.0244C10.3668 14.4342 10.6525 14.8116 10.8852 15.3015C11.1282 15.8129 11.3307 16.4827 11.5458 17.5071L13.5031 17.0961ZM11.3108 12.5732C10.8516 12.1377 10.0579 11.5947 9.48284 11.3216L8.62468 13.1281C9.01165 13.3119 9.63007 13.7356 9.93463 14.0244L11.3108 12.5732ZM9.48265 11.3215C9.0695 11.1253 8.72145 10.9658 8.2628 10.8852C7.84706 10.8121 7.36616 10.8095 6.69086 10.8095V12.8095C7.4216 12.8095 7.70894 12.8185 7.91652 12.8549C8.08121 12.8839 8.21159 12.932 8.62487 13.1282L9.48265 11.3215ZM6.69086 10.8095C6.01503 10.8095 5.53376 10.8119 5.11717 10.8855C4.65806 10.9665 4.30881 11.127 3.89343 11.3243L4.75142 13.1309C5.16879 12.9327 5.29985 12.8841 5.46482 12.855C5.6723 12.8184 5.95887 12.8095 6.69086 12.8095V10.8095ZM3.89346 11.3243C1.59805 12.4143 0.0133953 14.8283 1.70205e-05 17.332L1.99999 17.3427C2.00909 15.6389 3.12105 13.9051 4.75139 13.1309L3.89346 11.3243ZM1.60644e-05 17.3322C-0.000648883 17.4611 0.0252579 17.6531 0.0442878 17.792C0.0686957 17.9702 0.104056 18.2069 0.1486 18.4925C0.237862 19.0647 0.366593 19.8493 0.52491 20.7883C0.841693 22.667 1.27871 25.174 1.75959 27.8565L3.72821 27.5036C3.24823 24.8262 2.81245 22.3262 2.49707 20.4557C2.33931 19.5201 2.21212 18.7446 2.1247 18.1842C2.0809 17.9034 2.04772 17.6808 2.02579 17.5206C1.99848 17.3212 2.00023 17.2959 1.99999 17.3425L1.60644e-05 17.3322ZM1.75959 27.8565L3.50661 37.6014L5.47522 37.2485L3.72821 27.5036L1.75959 27.8565ZM3.49091 37.4249V43.1261H5.49091V37.4249H3.49091ZM3.49091 43.1261C3.49091 48.2158 3.51456 49.0505 3.765 50.5196L5.73656 50.1835C5.52059 48.9167 5.49091 48.27 5.49091 43.1261H3.49091ZM3.76501 50.5197C4.26275 53.4383 5.45995 56.3677 7.19859 58.9484L8.85727 57.8309C7.26751 55.4712 6.18377 52.8058 5.73654 50.1835L3.76501 50.5197ZM7.19855 58.9483C7.76468 59.7887 8.69985 60.8493 9.66984 61.8193C10.6409 62.7903 11.7095 63.7333 12.5666 64.318L13.6937 62.6659C12.9838 62.1816 12.0154 61.3365 11.0841 60.4051C10.1517 59.4727 9.31919 58.5166 8.85731 57.8309L7.19855 58.9483ZM12.5666 64.318C15.1879 66.1061 18.3923 67.3711 21.4626 67.8246L21.7549 65.8461C18.9919 65.438 16.0717 64.288 13.6936 62.6658L12.5666 64.318ZM21.4627 67.8246C23.4871 68.1235 27.0043 68.0305 28.8661 67.6197L28.4352 65.6667C26.8315 66.0205 23.5606 66.1127 21.7548 65.8461L21.4627 67.8246ZM28.8661 67.6197C35.9159 66.0639 41.5812 61.237 44.2231 54.5322L42.3624 53.799C39.965 59.883 34.8368 64.254 28.4351 65.6667L28.8661 67.6197ZM44.2231 54.5322C44.5725 53.6456 45.1724 51.392 45.4083 50.1186L43.4417 49.7544C43.2198 50.9525 42.649 53.0717 42.3624 53.799L44.2231 54.5322ZM45.4083 50.1184C45.3827 50.2567 45.333 50.3544 45.3225 50.3754C45.3041 50.4119 45.288 50.4378 45.2814 50.4482C45.2678 50.4696 45.26 50.4793 45.2662 50.4711C45.2768 50.4571 45.3021 50.4252 45.3482 50.3704C45.4382 50.2635 45.5759 50.1064 45.7608 49.9005C46.1286 49.4907 46.6611 48.9115 47.3207 48.2037C48.6387 46.7893 50.4518 44.8742 52.4412 42.8007L50.998 41.4161C49.0039 43.4945 47.1838 45.4169 45.8575 46.8402C45.1949 47.5513 44.6525 48.141 44.2723 48.5646C44.0831 48.7754 43.9287 48.9511 43.8181 49.0825C43.764 49.1468 43.712 49.2104 43.6694 49.2669C43.6491 49.2938 43.6207 49.3326 43.5928 49.3765C43.579 49.3982 43.5573 49.4338 43.5349 49.4784C43.5203 49.5075 43.4681 49.6115 43.4417 49.7547L45.4083 50.1184ZM52.4412 42.8007C56.303 38.7757 58.2931 36.7001 59.351 35.4259C59.8857 34.782 60.2288 34.2889 60.457 33.8102C60.6903 33.3204 60.7785 32.8934 60.8648 32.4765L58.9064 32.0708C58.8192 32.4916 58.7696 32.702 58.6514 32.9499C58.5281 33.2089 58.306 33.5537 57.8123 34.1483C56.8135 35.3513 54.8941 37.3553 50.998 41.4161L52.4412 42.8007ZM60.8649 32.4763C61.1684 31.01 60.9581 29.6236 60.2611 28.213L58.4681 29.0991C58.9873 30.1499 59.1108 31.0836 58.9064 32.0709L60.8649 32.4763ZM60.2611 28.2131C59.5428 26.7591 58.5899 25.8216 57.1097 25.0907L56.2242 26.884C57.3239 27.427 57.9509 28.0522 58.468 29.099L60.2611 28.2131ZM57.1097 25.0907C56.7039 24.8904 56.3573 24.7227 55.8953 24.6392C55.4804 24.5643 54.9958 24.5629 54.3162 24.5629V26.5629C55.0594 26.5629 55.3402 26.5714 55.5399 26.6074C55.6926 26.635 55.81 26.6795 56.2242 26.884L57.1097 25.0907ZM54.3162 24.5629C53.1376 24.5629 52.257 24.5658 51.1889 25.2221C50.2599 25.7929 49.1676 26.8754 47.2899 28.7372L48.6981 30.1574C50.6691 28.2031 51.5567 27.3435 52.2359 26.9261C52.7761 26.5942 53.1323 26.5629 54.3162 26.5629V24.5629ZM47.2899 28.7372L44.1414 31.8596L45.5496 33.2797L48.6982 30.1574L47.2899 28.7372ZM45.8365 32.7036L45.9155 32.1195L43.9335 31.8515L43.8545 32.4356L45.8365 32.7036ZM45.9155 32.1195C46.0276 31.2903 46.5334 26.037 47.0078 20.9423C47.2459 18.3855 47.4773 15.8554 47.6492 13.9185C47.7351 12.9502 47.8063 12.1288 47.8561 11.5258C47.9031 10.9562 47.937 10.5161 47.937 10.3719H45.937C45.937 10.3614 45.9371 10.3748 45.9336 10.4346C45.9306 10.4859 45.9259 10.5557 45.9194 10.6443C45.9066 10.821 45.8875 11.0625 45.8628 11.3612C45.8136 11.9582 45.7428 12.7749 45.657 13.7417C45.4854 15.6747 45.2544 18.2018 45.0164 20.7569C44.5388 25.8861 44.0384 31.0762 43.9335 31.8515L45.9155 32.1195ZM47.937 10.3719C47.937 7.02646 45.2974 4.19131 41.9356 3.81846L41.7151 5.80627C44.1116 6.07205 45.937 8.09293 45.937 10.3719H47.937ZM41.9355 3.81845C38.9806 3.49087 35.9285 5.45866 34.9338 8.28564L36.8205 8.94946C37.5155 6.97412 39.7123 5.58423 41.7151 5.80627L41.9355 3.81845ZM34.9339 8.28556C34.878 8.44437 34.832 8.66503 34.795 8.86043C34.7536 9.07973 34.7088 9.34989 34.6635 9.65036C34.5726 10.2523 34.4757 10.9986 34.3941 11.7474L36.3824 11.964C36.4613 11.2396 36.5547 10.5208 36.641 9.94894C36.6843 9.66251 36.7249 9.41859 36.7602 9.23205C36.8 9.02161 36.8221 8.94468 36.8204 8.94953L34.9339 8.28556ZM34.3941 11.7473L34.102 14.4258L36.0902 14.6427L36.3824 11.9642L34.3941 11.7473ZM36.096 14.5198L36.0294 9.9137L34.0296 9.94261L34.0962 14.5487L36.096 14.5198ZM36.0294 9.91371C35.9977 7.72113 35.9779 6.52755 35.9288 5.80361C35.9038 5.43503 35.869 5.14847 35.8104 4.89211C35.7492 4.62467 35.6695 4.42352 35.5913 4.23786L33.7481 5.01423C33.8105 5.16215 33.838 5.23858 33.8607 5.33784C33.8859 5.44819 33.9115 5.61748 33.9334 5.93904C33.9779 6.59538 33.9975 7.71927 34.0296 9.9426L36.0294 9.91371ZM35.5913 4.23777C34.8696 2.52493 33.7523 1.338 32.0981 0.547073L31.2354 2.35143C32.4366 2.92574 33.2115 3.7406 33.7482 5.01431L35.5913 4.23777ZM32.0982 0.547093C31.7072 0.360142 31.3701 0.216626 30.9502 0.129957C30.5545 0.0482673 30.124 0.025672 29.5614 0.00882004L29.5015 2.00792C30.0737 2.02506 30.342 2.04657 30.5459 2.08866C30.7257 2.12577 30.8888 2.18569 31.2354 2.35141L32.0982 0.547093ZM29.5613 0.00881751C28.536 -0.0218078 27.9284 0.0181177 27.2519 0.260155L27.9257 2.14325C28.2422 2.03 28.5455 1.97937 29.5016 2.00793L29.5613 0.00881751ZM30.5744 4.23191C30.9992 4.45229 31.3208 4.72387 31.4765 4.92859L33.0682 3.71755C32.6867 3.21618 32.1045 2.77258 31.4953 2.45657L30.5744 4.23191ZM31.4764 4.92841C31.7335 5.26653 31.765 5.29199 31.8165 5.43729C31.8811 5.6195 31.9531 5.97967 32.0017 6.87975C32.0979 8.66041 32.0901 12.1231 32.0901 19.4594H34.0901C34.0901 12.1693 34.0988 8.62313 33.9988 6.77186C33.9493 5.85598 33.8701 5.24443 33.7016 4.76909C33.52 4.25683 33.2365 3.93891 33.0683 3.71774L31.4764 4.92841ZM32.0901 19.4594C32.0901 26.6707 32.0793 30.1288 32.1659 31.8068C32.1878 32.2306 32.2171 32.5709 32.2598 32.843C32.3005 33.1025 32.3642 33.3774 32.4961 33.6221C32.656 33.9189 32.8822 34.1114 33.1319 34.2299C33.2303 34.2766 33.3222 34.3066 33.3657 34.3208C33.4232 34.3396 33.4354 34.3433 33.4542 34.3504L34.1662 32.4815C34.0897 32.4523 34.0131 32.4283 33.9875 32.4199C33.948 32.407 33.9626 32.4103 33.9893 32.423C34.0955 32.4734 34.2 32.5681 34.2567 32.6734C34.2854 32.7265 34.2644 32.7161 34.2356 32.5329C34.2088 32.3621 34.1838 32.1019 34.1632 31.7037C34.0802 30.0935 34.0901 26.7185 34.0901 19.4594H32.0901ZM33.4542 34.3504C33.9392 34.5352 34.4471 34.4739 34.8286 34.3374C35.2054 34.2026 35.6515 33.9246 35.9006 33.4485L34.1285 32.5214C34.1452 32.4894 34.1618 32.4679 34.1727 32.4555C34.1835 32.4431 34.1907 32.4375 34.1917 32.4368C34.1927 32.436 34.1898 32.4383 34.1826 32.4422C34.1755 32.446 34.166 32.4503 34.1549 32.4543C34.1437 32.4583 34.1327 32.4613 34.1228 32.4633C34.1129 32.4652 34.1061 32.4658 34.1032 32.4659C34.1002 32.466 34.1037 32.4656 34.1132 32.467C34.1228 32.4684 34.1413 32.472 34.1662 32.4815L33.4542 34.3504ZM35.9004 33.4488C35.9689 33.3182 35.9959 33.1899 35.9959 33.1895C36.0054 33.1502 36.0132 33.1111 36.0192 33.0787C36.0316 33.0121 36.0448 32.93 36.0584 32.8391C36.086 32.6549 36.1204 32.4001 36.1605 32.0866C36.2409 31.4579 36.3468 30.5714 36.4707 29.494C36.7186 27.3381 37.0397 24.406 37.3742 21.2174L35.3852 21.0087C35.0511 24.1927 34.7307 27.1179 34.4838 29.2655C34.3603 30.3399 34.2554 31.2167 34.1766 31.8329C34.1371 32.142 34.1048 32.3801 34.0804 32.543C34.0681 32.6257 34.059 32.6806 34.053 32.7127C34.0498 32.7296 34.0494 32.7302 34.0517 32.7207C34.0528 32.7162 34.0567 32.7 34.0638 32.6772C34.0674 32.6657 34.0872 32.6002 34.1287 32.521L35.9004 33.4488ZM37.3742 21.2174C37.9511 15.7182 38.258 12.8267 38.4609 11.2251C38.6672 9.5963 38.7553 9.42945 38.8347 9.26665L37.0373 8.38963C36.7934 8.88945 36.6796 9.37218 36.4767 10.9738C36.2704 12.6025 35.9607 15.5222 35.3852 21.0088L37.3742 21.2174ZM38.8347 9.26673C39.6408 7.61498 41.8183 7.22801 43.1792 8.54476L44.5699 7.1074C42.2542 4.8669 38.4531 5.48861 37.0373 8.38954L38.8347 9.26673ZM43.1791 8.54463C43.687 9.0362 43.9116 9.51705 43.9625 10.1939L45.9569 10.0441C45.8685 8.86813 45.4222 7.93236 44.57 7.10753L43.1791 8.54463ZM43.9625 10.1942C43.9611 10.1756 43.9631 10.2393 43.9516 10.4614C43.9416 10.6544 43.9245 10.9192 43.9003 11.2531C43.852 11.9197 43.7768 12.8439 43.6784 13.9826C43.4817 16.2591 43.1933 19.3807 42.8443 22.9873L44.835 23.1799C45.1844 19.5694 45.4735 16.4405 45.671 14.1548C45.7697 13.0124 45.8458 12.0777 45.895 11.3976C45.9196 11.0581 45.9379 10.7777 45.9489 10.5648C45.9584 10.3811 45.967 10.1783 45.9569 10.0438L43.9625 10.1942ZM42.8443 22.9873C42.2992 28.6201 42.007 31.6834 41.8751 33.3731C41.8098 34.2106 41.7808 34.7459 41.7839 35.0984C41.7867 35.4122 41.8078 35.789 42.0276 36.1252L43.7016 35.0307C43.827 35.2225 43.7864 35.3748 43.7838 35.0806C43.7815 34.8252 43.8035 34.3692 43.8691 33.5287C43.9991 31.8624 44.2889 28.823 44.835 23.1799L42.8443 22.9873ZM42.0274 36.1249C42.5445 36.9164 43.5491 37.3151 44.4866 36.926L43.7198 35.0788C43.7239 35.0771 43.7306 35.0754 43.7378 35.0753C43.7446 35.0751 43.7481 35.0763 43.7477 35.0762C43.7476 35.0761 43.7264 35.0687 43.7018 35.0311L42.0274 36.1249ZM44.4862 36.9261C44.6207 36.8704 44.7247 36.7925 44.75 36.7739C44.7984 36.7384 44.847 36.6992 44.8914 36.6621C44.9815 36.5869 45.0902 36.4902 45.2107 36.3798C45.4535 36.1572 45.774 35.8514 46.1472 35.4874C46.8952 34.7577 47.8741 33.7755 48.9047 32.7157L47.4708 31.3214C46.4494 32.3718 45.4833 33.3411 44.7507 34.0557C44.3836 34.4137 44.0799 34.7031 43.8593 34.9054C43.748 35.0074 43.6651 35.0805 43.6095 35.127C43.5961 35.1381 43.5857 35.1466 43.578 35.1527C43.57 35.1591 43.5667 35.1615 43.5672 35.1611C43.5677 35.1608 43.5699 35.1592 43.5738 35.1565C43.5775 35.1539 43.5842 35.1494 43.5934 35.1436C43.6044 35.1367 43.6511 35.1073 43.7202 35.0786L44.4862 36.9261ZM48.9047 32.7156C50.5228 31.0514 51.4633 30.099 52.0814 29.5222C52.6925 28.952 52.9247 28.811 53.1238 28.7165L52.2664 26.9096C51.7936 27.1339 51.385 27.4366 50.717 28.0599C50.0559 28.6767 49.0787 29.6676 47.4707 31.3214L48.9047 32.7156ZM53.1236 28.7166C54.5243 28.0522 56.1755 28.6549 56.8147 30.054L58.6338 29.2229C57.5286 26.8037 54.6701 25.7695 52.2665 26.9095L53.1236 28.7166ZM56.8146 30.0538C56.9427 30.3344 57.0239 30.7592 57.0133 31.229C57.0027 31.7004 56.902 32.1081 56.768 32.3618L58.5362 33.2963C58.8553 32.6925 58.9974 31.9574 59.0128 31.2741C59.0283 30.5892 58.919 29.8475 58.6339 29.2231L56.8146 30.0538ZM56.768 32.3616C56.7862 32.3273 56.7764 32.352 56.6777 32.4766C56.5936 32.583 56.4725 32.7278 56.3096 32.9152C55.9845 33.2893 55.5153 33.8076 54.89 34.4823C53.6409 35.8303 51.7898 37.7801 49.2702 40.4033L50.7126 41.7888C53.234 39.1638 55.0952 37.2034 56.357 35.8417C56.9873 35.1615 57.4733 34.6251 57.8191 34.2272C57.9916 34.0287 58.1349 33.8582 58.2459 33.7179C58.3425 33.5959 58.4589 33.4425 58.5361 33.2965L56.768 32.3616ZM49.2702 40.4033C47.2315 42.5256 45.3917 44.4668 44.056 45.8995C43.3887 46.6152 42.844 47.2074 42.4624 47.6331C42.2725 47.8449 42.1173 48.0218 42.0059 48.1545C41.9514 48.2195 41.8989 48.284 41.8558 48.3415C41.8351 48.3691 41.8067 48.4081 41.7789 48.4523C41.7651 48.4742 41.7439 48.5091 41.7222 48.5525C41.7068 48.5833 41.6599 48.6782 41.633 48.8079L43.5914 49.2136C43.5656 49.3382 43.5214 49.4263 43.5102 49.4487C43.4926 49.4837 43.4773 49.5085 43.4708 49.5188C43.4576 49.5398 43.45 49.5492 43.4561 49.541C43.4667 49.5269 43.492 49.4949 43.5382 49.4399C43.6283 49.3325 43.7661 49.1749 43.9515 48.9682C44.3203 48.5569 44.8546 47.9757 45.5188 47.2634C46.8459 45.8399 48.6786 43.9063 50.7126 41.7888L49.2702 40.4033ZM41.6332 48.8069C41.5988 48.9722 41.4464 49.7164 41.2947 50.4588L43.2542 50.8591C43.4064 50.1145 43.5578 49.3752 43.5912 49.2146L41.6332 48.8069ZM41.2947 50.4588C40.3383 55.139 37.2889 59.3783 33.1903 61.7359L34.1875 63.4695C38.7881 60.8233 42.1842 56.0957 43.2542 50.8592L41.2947 50.4588ZM33.1903 61.7359C30.4103 63.3349 27.6773 64.0704 24.5293 64.0714L24.53 66.0714C28.0335 66.0703 31.1094 65.24 34.1875 63.4695L33.1903 61.7359ZM24.5293 64.0714C17.0138 64.0738 10.4579 59.2562 8.18894 52.0559L6.28141 52.657C8.81144 60.6859 16.1367 66.074 24.53 66.0714L24.5293 64.0714ZM8.18894 52.0559C7.8322 50.9238 7.65303 50.2252 7.55304 49.0538C7.449 47.8349 7.43206 46.1167 7.43206 42.9484H5.43206C5.43206 46.0877 5.44741 47.9016 5.56029 49.2239C5.67721 50.5937 5.8996 51.4453 6.28141 52.657L8.18894 52.0559ZM7.43206 42.9484V37.2191H5.43206V42.9484H7.43206ZM7.41641 37.0428L5.66937 27.2872L3.70069 27.6398L5.44772 37.3953L7.41641 37.0428ZM5.66937 27.2872C5.18921 24.6059 4.75283 22.1282 4.43663 20.2968C4.27847 19.3807 4.15068 18.6281 4.06258 18.0931C4.01845 17.8251 3.98479 17.6147 3.96236 17.4669C3.95107 17.3924 3.94329 17.3381 3.93856 17.3022C3.92972 17.2348 3.93801 17.2777 3.93801 17.3448H1.93801C1.93801 17.4368 1.95245 17.5387 1.95559 17.5626C1.96285 17.6179 1.9729 17.6871 1.98498 17.7668C2.0093 17.9271 2.04456 18.1472 2.08915 18.418C2.17849 18.9606 2.30729 19.7191 2.46578 20.6371C2.78287 22.4736 3.22 24.9555 3.70069 27.6398L5.66937 27.2872ZM3.93801 17.3448C3.93801 17.3562 3.93766 17.3379 3.94514 17.2795C3.95185 17.2272 3.96252 17.1606 3.97715 17.0837C4.0067 16.9285 4.04748 16.7573 4.09013 16.6134L2.1726 16.045C2.05828 16.4307 1.93801 16.9986 1.93801 17.3448H3.93801ZM4.09019 16.6132C4.63787 14.7641 7.02629 14.0598 8.4884 15.3147L9.79093 13.797C7.22769 11.5971 3.13168 12.8069 2.17254 16.0452L4.09019 16.6132ZM8.48841 15.3147C8.73529 15.5265 8.81796 15.6082 8.90289 15.7469C9.00227 15.9093 9.13015 16.2 9.30788 16.8497C9.66562 18.1575 10.1381 20.5704 11.0913 25.4694L13.0544 25.0874C12.1112 20.2395 11.6202 17.7229 11.237 16.322C11.0442 15.6173 10.8573 15.1089 10.6087 14.7027C10.3456 14.273 10.0471 14.0168 9.79092 13.7969L8.48841 15.3147ZM11.0913 25.4694C11.5719 27.9395 12.024 30.2334 12.3653 31.9394C12.5359 32.7922 12.6791 33.4995 12.7845 34.009C12.8371 34.2634 12.8808 34.4709 12.9139 34.6233C12.9406 34.7463 12.9735 34.8963 13.0005 34.9815L14.9069 34.3767C14.9155 34.4037 14.9057 34.3707 14.8683 34.1985C14.8373 34.0558 14.7952 33.856 14.7431 33.604C14.639 33.1006 14.4967 32.3982 14.3264 31.547C13.986 29.8453 13.5346 27.5551 13.0544 25.0874L11.0913 25.4694ZM13.0006 34.9817C13.2902 35.8942 14.1037 36.3537 14.8609 36.3803C15.6217 36.4072 16.4835 35.9955 16.7902 35.0559L14.8889 34.4353C14.8886 34.4362 14.8917 34.4272 14.9017 34.4145C14.9113 34.4023 14.9223 34.393 14.9317 34.3871C14.9405 34.3816 14.9455 34.3804 14.9447 34.3806C14.9437 34.3809 14.939 34.3819 14.9313 34.3816C14.9236 34.3813 14.9162 34.3799 14.9101 34.3779C14.9041 34.376 14.9016 34.3742 14.9019 34.3744C14.9026 34.3749 14.9051 34.3769 14.9075 34.3802C14.9103 34.384 14.9092 34.3841 14.9068 34.3765L13.0006 34.9817ZM16.7902 35.0559C16.8432 34.8934 16.8479 34.7288 16.8492 34.7028C16.8528 34.6304 16.8538 34.5477 16.8535 34.4617C16.8529 34.2874 16.8465 34.0535 16.8351 33.7653C16.8124 33.1865 16.7684 32.3536 16.7032 31.2658C16.5728 29.0882 16.3564 25.8668 16.0518 21.564L14.0568 21.7052C14.3612 26.0064 14.577 29.219 14.7068 31.3854C14.7717 32.4694 14.8148 33.2859 14.8367 33.8438C14.8477 34.124 14.853 34.3303 14.8535 34.4692C14.8538 34.5398 14.8528 34.5821 14.8517 34.603C14.8484 34.6703 14.8458 34.5675 14.8889 34.4353L16.7902 35.0559ZM16.0518 21.564C15.6022 15.213 15.3779 12.0392 15.2942 10.3583C15.252 9.51098 15.2481 9.08588 15.2626 8.83808C15.274 8.64179 15.2931 8.58625 15.3365 8.448L13.4286 7.84822C13.3571 8.07553 13.2904 8.30277 13.266 8.72146C13.2445 9.08864 13.2545 9.61072 13.2967 10.4578C13.3818 12.1657 13.6083 15.3695 14.0568 21.7052L16.0518 21.564ZM15.3365 8.44805C15.4367 8.12947 15.6877 7.72879 16.0474 7.36589C16.4095 7.00054 16.7909 6.76489 17.0718 6.68125L16.5011 4.76442C15.8012 4.97283 15.1412 5.43905 14.6269 5.95795C14.1102 6.47929 13.6496 7.14523 13.4286 7.84817L15.3365 8.44805ZM17.0718 6.68126C17.6899 6.49723 18.1684 6.48706 18.571 6.58903C18.9734 6.69095 19.3882 6.92732 19.8421 7.38241L21.2582 5.97006C20.6134 5.32355 19.8934 4.86083 19.0621 4.65025C18.2309 4.43972 17.3769 4.50365 16.5011 4.76441L17.0718 6.68126ZM19.8421 7.38241C20.1177 7.65869 20.2573 7.82602 20.3442 7.95958C20.4206 8.07682 20.4741 8.19501 20.5309 8.39613L22.4557 7.85262C22.3577 7.50566 22.231 7.1919 22.0202 6.86815C21.82 6.56073 21.5654 6.27803 21.2582 5.97006L19.8421 7.38241ZM20.5309 8.39617C20.524 8.37176 20.5363 8.41839 20.5623 8.61377C20.5847 8.78197 20.6117 9.01444 20.6432 9.31323C20.7061 9.90966 20.7848 10.7482 20.8784 11.8201C21.0653 13.9626 21.3101 17.0206 21.6046 20.9028L23.5988 20.7515C23.3041 16.8665 23.0587 13.7999 22.8708 11.6462C22.7769 10.57 22.697 9.71756 22.6321 9.10332C22.5998 8.79678 22.5706 8.54401 22.5448 8.34994C22.5226 8.18305 22.4946 7.99039 22.4556 7.85258L20.5309 8.39617ZM21.6046 20.9028C22.1101 27.5661 22.3386 30.7788 22.5689 32.3149C22.6273 32.7047 22.6919 33.0311 22.7742 33.2964C22.8531 33.5505 22.9776 33.8495 23.2179 34.0909C23.4969 34.3712 23.8153 34.461 24.0501 34.4909C24.1505 34.5036 24.2452 34.5065 24.2973 34.5081C24.3617 34.5101 24.3935 34.5109 24.4289 34.5136L24.5797 32.5193C24.4897 32.5125 24.4049 32.5105 24.3602 32.5091C24.3033 32.5073 24.2966 32.5061 24.3022 32.5068C24.3474 32.5126 24.5023 32.5463 24.6353 32.68C24.7296 32.7747 24.7255 32.8364 24.6844 32.7037C24.6467 32.5824 24.5999 32.3726 24.5468 32.0183C24.3307 30.5775 24.1096 27.4835 23.5988 20.7515L21.6046 20.9028ZM24.4292 34.5136C24.6668 34.5315 24.9609 34.5355 25.261 34.4408C25.5944 34.3357 25.831 34.1439 26.0096 33.9462L24.5257 32.6054C24.514 32.6184 24.5228 32.6062 24.5507 32.5868C24.565 32.5769 24.5823 32.5664 24.6022 32.5565C24.6222 32.5467 24.6417 32.5391 24.6595 32.5335C24.695 32.5222 24.7134 32.5223 24.701 32.5231C24.6863 32.524 24.6501 32.5246 24.5795 32.5193L24.4292 34.5136ZM26.0097 33.9462C26.097 33.8495 26.2025 33.7114 26.2824 33.5042C26.3482 33.3334 26.3815 33.154 26.4038 32.9822C26.4479 32.6411 26.4743 32.1019 26.4944 31.2116C26.5353 29.4069 26.5531 25.9656 26.5846 19.2937L24.5847 19.2842C24.5531 25.9686 24.5353 29.3847 24.495 31.1663C24.4745 32.0692 24.4488 32.5054 24.4203 32.7254C24.4062 32.8342 24.3981 32.8318 24.4162 32.7848C24.4483 32.7014 24.4998 32.6341 24.5256 32.6055L26.0097 33.9462ZM26.5846 19.2937L26.6492 5.58623L24.6492 5.57681L24.5847 19.2842L26.5846 19.2937ZM26.5403 6.03537L26.8626 5.40258L25.0804 4.49488L24.7581 5.12767L26.5403 6.03537ZM26.8625 5.40273C26.9921 5.14829 27.2228 4.85241 27.5104 4.58947C27.8018 4.32299 28.0877 4.14858 28.2906 4.07651L27.6212 2.19185C27.0917 2.37993 26.5807 2.72944 26.1607 3.11353C25.7368 3.50116 25.3415 3.98248 25.0805 4.49473L26.8625 5.40273ZM28.2908 4.07646C28.446 4.02129 28.9566 3.9367 29.3703 3.93182L29.3468 1.93196C28.812 1.93826 28.0603 2.03583 27.6211 2.19191L28.2908 4.07646ZM29.3704 3.93182C29.7147 3.92774 29.8582 3.94309 29.973 3.97134C30.0928 4.0008 30.2414 4.05909 30.5741 4.2318L31.4955 2.45668C31.1371 2.27063 30.8133 2.11841 30.4507 2.02922C30.0831 1.93881 29.734 1.92737 29.3467 1.93196L29.3704 3.93182Z"
         fill="white" />
   </symbol>
   <symbol id="iconFacebook" viewBox="0 0 24 24">
      <path
         d="M20.9 2H3.1C2.80826 2 2.52847 2.11589 2.32218 2.32218C2.11589 2.52847 2 2.80826 2 3.1V20.9C2 21.0445 2.02845 21.1875 2.08373 21.321C2.13901 21.4544 2.22004 21.5757 2.32218 21.6778C2.42433 21.78 2.54559 21.861 2.67905 21.9163C2.81251 21.9715 2.95555 22 3.1 22H12.68V14.25H10.08V11.25H12.68V9C12.6261 8.47176 12.6885 7.93813 12.8627 7.43654C13.0369 6.93495 13.3188 6.47755 13.6885 6.09641C14.0582 5.71528 14.5068 5.41964 15.0028 5.23024C15.4989 5.04083 16.0304 4.96225 16.56 5C17.3383 4.99521 18.1163 5.03528 18.89 5.12V7.82H17.3C16.04 7.82 15.8 8.42 15.8 9.29V11.22H18.8L18.41 14.22H15.8V22H20.9C21.0445 22 21.1875 21.9715 21.321 21.9163C21.4544 21.861 21.5757 21.78 21.6778 21.6778C21.78 21.5757 21.861 21.4544 21.9163 21.321C21.9715 21.1875 22 21.0445 22 20.9V3.1C22 2.95555 21.9715 2.81251 21.9163 2.67905C21.861 2.54559 21.78 2.42433 21.6778 2.32218C21.5757 2.22004 21.4544 2.13901 21.321 2.08373C21.1875 2.02845 21.0445 2 20.9 2Z"
         fill="white" />
   </symbol>
   <symbol id="iconInstagram" viewBox="0 0 24 24">
      <path
         d="M12 9.52C11.5095 9.52 11.03 9.66545 10.6222 9.93795C10.2144 10.2105 9.89648 10.5978 9.70878 11.0509C9.52107 11.5041 9.47196 12.0028 9.56765 12.4838C9.66334 12.9649 9.89954 13.4068 10.2464 13.7536C10.5932 14.1005 11.0351 14.3367 11.5162 14.4323C11.9972 14.528 12.4959 14.4789 12.9491 14.2912C13.4022 14.1035 13.7895 13.7856 14.062 13.3778C14.3346 12.97 14.48 12.4905 14.48 12C14.48 11.6743 14.4159 11.3518 14.2912 11.0509C14.1666 10.7501 13.9839 10.4767 13.7536 10.2464C13.5233 10.0161 13.2499 9.83341 12.9491 9.70878C12.6482 9.58415 12.3257 9.52 12 9.52ZM21.93 7.07C21.9247 6.29776 21.7825 5.53257 21.51 4.81C21.3093 4.28126 20.9987 3.80109 20.5988 3.40119C20.1989 3.00128 19.7187 2.69072 19.19 2.49C18.4674 2.21746 17.7022 2.07526 16.93 2.07C15.64 2 15.26 2 12 2C8.74 2 8.36 2 7.07 2.07C6.29776 2.07526 5.53257 2.21746 4.81 2.49C4.28126 2.69072 3.80109 3.00128 3.40119 3.40119C3.00128 3.80109 2.69072 4.28126 2.49 4.81C2.21746 5.53257 2.07526 6.29776 2.07 7.07C2 8.36 2 8.74 2 12C2 15.26 2 15.64 2.07 16.93C2.08076 17.705 2.22277 18.4725 2.49 19.2C2.68983 19.7263 3.00013 20.2037 3.4 20.6C3.79819 21.0023 4.27939 21.3129 4.81 21.51C5.53257 21.7825 6.29776 21.9247 7.07 21.93C8.36 22 8.74 22 12 22C15.26 22 15.64 22 16.93 21.93C17.7022 21.9247 18.4674 21.7825 19.19 21.51C19.7206 21.3129 20.2018 21.0023 20.6 20.6C20.9999 20.2037 21.3102 19.7263 21.51 19.2C21.7823 18.4739 21.9244 17.7055 21.93 16.93C22 15.64 22 15.26 22 12C22 8.74 22 8.36 21.93 7.07ZM19.39 15.07C19.3579 15.6871 19.2262 16.295 19 16.87C18.8059 17.3497 18.5173 17.7854 18.1514 18.1514C17.7854 18.5173 17.3497 18.8059 16.87 19C16.2895 19.2136 15.6783 19.3318 15.06 19.35C14.27 19.35 14.06 19.35 12 19.35C9.94 19.35 9.73 19.35 8.94 19.35C8.32173 19.3318 7.71049 19.2136 7.13 19C6.6341 18.8157 6.18628 18.5217 5.82 18.14C5.45767 17.7813 5.17784 17.3479 5 16.87C4.78556 16.2901 4.67061 15.6782 4.66 15.06C4.66 14.27 4.66 14.06 4.66 12C4.66 9.94 4.66 9.73 4.66 8.94C4.67061 8.32183 4.78556 7.70988 5 7.13C5.18428 6.6341 5.47827 6.18628 5.86 5.82C6.22033 5.45962 6.65326 5.18009 7.13 5C7.71049 4.78641 8.32173 4.66821 8.94 4.65C9.73 4.65 9.94 4.65 12 4.65C14.06 4.65 14.27 4.65 15.06 4.65C15.6783 4.66821 16.2895 4.78641 16.87 5C17.3659 5.18428 17.8137 5.47827 18.18 5.86C18.5423 6.21875 18.8222 6.65213 19 7.13C19.2136 7.71049 19.3318 8.32173 19.35 8.94C19.35 9.73 19.35 9.94 19.35 12C19.35 14.06 19.42 14.27 19.39 15.06V15.07ZM17.79 7.63C17.6709 7.30698 17.4832 7.01364 17.2398 6.77021C16.9964 6.52678 16.703 6.33906 16.38 6.22C15.9365 6.06626 15.4693 5.99179 15 6C14.22 6 14 6 12 6C10 6 9.78 6 9 6C8.52827 6.00461 8.06107 6.09263 7.62 6.26C7.30193 6.37366 7.01169 6.55371 6.76858 6.7882C6.52547 7.02269 6.33506 7.30624 6.21 7.62C6.06478 8.06537 5.99383 8.5316 6 9C6 9.78 6 10 6 12C6 14 6 14.22 6 15C6.00991 15.4712 6.09777 15.9375 6.26 16.38C6.37906 16.703 6.56678 16.9964 6.81021 17.2398C7.05364 17.4832 7.34698 17.6709 7.67 17.79C8.09667 17.9469 8.54565 18.0347 9 18.05C9.78 18.05 10 18.05 12 18.05C14 18.05 14.22 18.05 15 18.05C15.4717 18.0454 15.9389 17.9574 16.38 17.79C16.703 17.6709 16.9964 17.4832 17.2398 17.2398C17.4832 16.9964 17.6709 16.703 17.79 16.38C17.9574 15.9389 18.0454 15.4717 18.05 15C18.05 14.22 18.05 14 18.05 12C18.05 10 18.05 9.78 18.05 9C18.0503 8.5278 17.9621 8.05972 17.79 7.62V7.63ZM12 15.82C11.4988 15.82 11.0026 15.7211 10.5397 15.529C10.0768 15.3369 9.6563 15.0554 9.30238 14.7005C8.94846 14.3457 8.66803 13.9245 8.47714 13.4611C8.28626 12.9977 8.18868 12.5012 8.19 12C8.19 11.2441 8.4143 10.5051 8.83449 9.87669C9.25468 9.24828 9.85187 8.75866 10.5505 8.46983C11.2491 8.181 12.0177 8.10594 12.7589 8.25415C13.5002 8.40236 14.1808 8.76717 14.7147 9.30241C15.2485 9.83764 15.6116 10.5192 15.7578 11.2609C15.9041 12.0026 15.827 12.771 15.5363 13.4688C15.2457 14.1666 14.7545 14.7625 14.125 15.1811C13.4955 15.5996 12.7559 15.822 12 15.82ZM16 8.93C15.7789 8.9066 15.5744 8.80222 15.4257 8.63697C15.277 8.47172 15.1947 8.25729 15.1947 8.035C15.1947 7.81271 15.277 7.59828 15.4257 7.43303C15.5744 7.26778 15.7789 7.1634 16 7.14C16.2211 7.1634 16.4256 7.26778 16.5743 7.43303C16.723 7.59828 16.8053 7.81271 16.8053 8.035C16.8053 8.25729 16.723 8.47172 16.5743 8.63697C16.4256 8.80222 16.2211 8.9066 16 8.93Z"
         fill="white" />
   </symbol>
   <symbol id="iconTikTok" viewBox="0 0 24 24">
      <path
         d="M12.4549 2.01772C13.5847 2 14.7081 2.0105 15.8301 2C15.8981 3.33948 16.3733 4.70389 17.3406 5.65091C18.3059 6.62156 19.6714 7.06586 21 7.21615V10.7397C19.7549 10.6984 18.5041 10.4359 17.3743 9.89248C16.8822 9.66672 16.4238 9.37599 15.9751 9.07869C15.9693 11.6356 15.9855 14.1892 15.9589 16.7356C15.8916 17.9589 15.4934 19.1763 14.7916 20.1843C13.6624 21.8625 11.7026 22.9565 9.68965 22.9906C8.45496 23.0622 7.22156 22.7209 6.16945 22.0922C4.42586 21.05 3.19894 19.1422 3.02024 17.0946C2.99952 16.6568 2.9924 16.2197 3.00988 15.7925C3.16527 14.1275 3.97782 12.5347 5.23906 11.4512C6.66863 10.1891 8.67121 9.58797 10.5462 9.94367C10.5637 11.2398 10.5126 12.5347 10.5126 13.8308C9.65598 13.55 8.65502 13.6287 7.90656 14.1557C7.36011 14.5147 6.9451 15.0647 6.72885 15.6868C6.55015 16.1305 6.6013 16.6233 6.61166 17.0946C6.8169 18.5305 8.17914 19.7374 9.63332 19.6068C10.5974 19.5963 11.5213 19.0293 12.0237 18.1991C12.1862 17.9083 12.3682 17.6111 12.3779 17.2691C12.4627 15.7039 12.429 14.1452 12.4394 12.58C12.4465 9.05244 12.429 5.53475 12.4556 2.01838L12.4549 2.01772Z"
         fill="white" />
   </symbol>
</svg>
