<svg display="none" xmlns="http://www.w3.org/2000/svg" xmlns:xlink="http://www.w3.org/1999/xlink">
   <symbol id="logo" viewBox="0 0 120 50">
      <path d="M20.116 22.3227L15.5549 3.52522H8.9758L4 22.3227H9.22459L9.91567 18.8396H13.841L14.4768 22.3227H20.116ZM13.1499 14.9419H10.6344L11.906 8.08637L13.1499 14.9419Z" fill="#211747" />
      <path
         d="M36.751 22.3227L32.494 14.0573C34.2355 12.924 35.2859 11.1548 35.2859 8.88802C35.2859 5.01796 32.6045 3 28.1816 3C26.3571 3 24.2563 3.35936 21.8513 4.05044V22.3227H27.3523V15.3289H27.6011L30.0614 22.3227H36.751ZM29.6467 9.57911C29.6467 11.68 28.7621 12.3987 27.3523 12.5093V7.1465C28.6239 7.22943 29.6467 7.86522 29.6467 9.57911Z"
         fill="#211747" />
      <path
         d="M50.747 16.9599C50.747 8.74981 43.615 11.1824 43.615 8.88802C43.615 7.69936 44.6378 7.1465 45.9094 7.1465C47.4021 7.1465 48.9778 7.83758 49.8071 8.22458V4.18866C48.2867 3.41465 46.9046 3 45.2183 3C41.5417 3 38.114 4.99032 38.114 9.16446C38.114 16.9599 45.2183 14.9419 45.2183 17.2087C45.2183 18.2315 44.2232 18.7014 42.9516 18.7014C41.293 18.7014 39.1091 18.0103 38.114 17.6233V21.6592C39.5238 22.4333 41.4312 22.8479 43.3386 22.8479C47.0428 22.8479 50.747 21.1617 50.747 16.9599Z"
         fill="#211747" />
      <path d="M64.1924 22.3227V18.1485H58.802V14.9419H62.8379V10.7678H58.802V7.69936H64.1924V3.52522H53.301V22.3227H64.1924Z" fill="#211747" />
      <path d="M82.8467 22.3227V3.52522H78.3961V16.0753L73.835 3.52522H66.1778V22.3227H70.6283V9.63439L75.3277 22.3227H82.8467Z" fill="#211747" />
      <path d="M91.5474 22.3227V3.52522H86.0464V22.3227H91.5474Z" fill="#211747" />
      <path d="M100.985 19.3649V3.52522H93.466V7.56114H95.484V18.9778C95.484 21.6592 93.7148 23.926 92.388 25.0041L97.7508 25.2805C99.1053 24.2024 100.985 22.3227 100.985 19.3649Z" fill="#211747" />
      <path
         d="M115.887 16.9599C115.887 8.74981 108.755 11.1824 108.755 8.88802C108.755 7.69936 109.778 7.1465 111.05 7.1465C112.542 7.1465 114.118 7.83758 114.947 8.22458V4.18866C113.427 3.41465 112.045 3 110.359 3C106.682 3 103.254 4.99032 103.254 9.16446C103.254 16.9599 110.359 14.9419 110.359 17.2087C110.359 18.2315 109.363 18.7014 108.092 18.7014C106.433 18.7014 104.249 18.0103 103.254 17.6233V21.6592C104.664 22.4333 106.571 22.8479 108.479 22.8479C112.183 22.8479 115.887 21.1617 115.887 16.9599Z"
         fill="#211747" />
      <path d="M22.0796 32.6994V28.5252H11.1881V47.3227H16.6891V41.2688H20.725V37.1223H16.6891V32.6994H22.0796Z" fill="#211747" />
      <path d="M38.041 47.3227L33.4798 28.5252H26.9007L21.9249 47.3227H27.1495L27.8406 43.8396H31.766L32.4017 47.3227H38.041ZM31.0749 39.9419H28.5593L29.8309 33.0864L31.0749 39.9419Z" fill="#211747" />
      <path
         d="M53.2109 41.5452C53.2109 39.3891 51.8011 38.0622 49.6726 37.4264C51.9946 36.2377 52.5475 34.745 52.5475 33.2246C52.5475 29.7139 49.5343 28 45.2773 28C43.6187 28 41.7113 28.2488 39.7762 28.8017V47.0463C41.9048 47.682 43.7569 47.9861 45.4155 47.9861C50.3084 47.9861 53.2109 45.4982 53.2109 41.5452ZM45.1667 39.6655C46.6318 39.7208 47.9863 40.2736 47.9863 41.8217C47.9863 43.425 46.6041 44.0055 45.1667 44.0884V39.6655ZM47.4334 34.4409C47.4334 35.1043 47.3505 36.1271 46.8806 36.9012C46.4106 36.8735 45.7748 36.8459 45.2773 36.8459H45.1667V31.7595C46.4106 31.953 47.4334 32.7823 47.4334 34.4409Z"
         fill="#211747" />
      <path
         d="M70.5223 47.3227L66.2652 39.0573C68.0068 37.924 69.0572 36.1548 69.0572 33.888C69.0572 30.018 66.3758 28 61.9529 28C60.1284 28 58.0275 28.3594 55.6226 29.0505V47.3227H61.1236V40.3289H61.3724L63.8326 47.3227H70.5223ZM63.418 34.5791C63.418 36.68 62.5334 37.3987 61.1236 37.5093V32.1465C62.3952 32.2294 63.418 32.8652 63.418 34.5791Z"
         fill="#211747" />
      <path d="M78.0497 47.3227V28.5252H72.5487V47.3227H78.0497Z" fill="#211747" />
      <path
         d="M94.3152 46.6592V42.2087C92.933 42.8445 91.385 43.2868 90.0305 43.2868C87.7637 43.2868 85.9946 42.264 85.9946 38.2004C85.9946 33.9157 87.9573 32.5612 90.4452 32.5612C91.6615 32.5612 93.016 32.9482 94.3152 33.6392V29.1887C92.6566 28.4147 91.0533 28 89.5053 28C84.5018 28 80.3553 31.8424 80.3553 38.8638C80.3553 44.973 84.4466 47.8479 89.0906 47.8479C90.8322 47.8479 92.6013 47.4333 94.3152 46.6592Z"
         fill="#211747" />
      <path d="M110.983 47.3227L106.422 28.5252H99.8424L94.8666 47.3227H100.091L100.782 43.8396H104.708L105.344 47.3227H110.983ZM104.017 39.9419H101.501L102.773 33.0864L104.017 39.9419Z" fill="#211747" />
   </symbol>
   <symbol id="iconFavorite" viewBox="0 0 45 45">
      <path
         d="M38.6123 6.67835C36.5679 5.34035 34.146 4.77626 31.7515 5.08043C29.3569 5.38459 27.1348 6.53854 25.4568 8.34939L23.0057 10.871H22.9482L20.5257 8.34939C18.8477 6.53854 16.6255 5.38459 14.231 5.08043C11.8364 4.77626 9.41456 5.34035 7.37021 6.67835C6.17545 7.48694 5.16827 8.56373 4.4219 9.83038C3.67552 11.097 3.20875 12.5217 3.05559 14.0006C2.90243 15.4795 3.06671 16.9755 3.53649 18.3797C4.00626 19.784 4.76971 21.0611 5.77126 22.1181L22.8811 41L40.2399 22.1181C41.2401 21.0589 42.0017 19.7801 42.4691 18.3746C42.9366 16.9691 43.0983 15.4724 42.9425 13.9933C42.7865 12.5143 42.3169 11.0902 41.5679 9.82477C40.8187 8.55934 39.809 7.48445 38.6123 6.67835Z"
         stroke="currentColor" stroke-width="4" stroke-linecap="round" stroke-linejoin="round" />
   </symbol>
   <symbol id="iconBacket" viewBox="0 0 45 45">
      <path
         d="M15.5 17.3752V8.62095C15.5 4.96429 18.6339 2 22.4999 2C26.3659 2 29.5 4.96429 29.5 8.62095V17.3752M9.04515 38.4851L5.12807 19.266C4.39419 15.6653 6.90718 12.2495 10.2902 12.2495H34.7098C38.0927 12.2495 40.6058 15.6653 39.872 19.266L35.9547 38.4851C35.4171 41.1231 33.2713 43 30.7927 43H14.2073C11.7288 43 9.5828 41.1231 9.04515 38.4851Z"
         stroke="currentColor" stroke-width="4" />
   </symbol>
   <symbol id="iconSearch" viewBox="0 0 45 45">
      <path d="M20.0001 36C28.8366 36 36 28.8366 36 20.0001C36 11.1634 28.8366 4 20.0001 4C11.1635 4 4 11.1634 4 20.0001C4 28.8366 11.1635 36 20.0001 36Z" stroke="currentColor" stroke-width="4" stroke-linecap="round"
         stroke-linejoin="round" />
      <path d="M32 32L42 42" stroke="#211747" stroke-width="4" stroke-miterlimit="10" stroke-linecap="round" />
   </symbol>
   <symbol id="iconArrow" viewBox="0 0 45 45">
      <path d="M22.5 45C34.9264 45 45 34.9264 45 22.5C45 10.0736 34.9264 0 22.5 0C10.0736 0 0 10.0736 0 22.5C0 34.9264 10.0736 45 22.5 45Z" fill="white" />
      <path
         d="M30.7349 23.1242C31.0884 22.7794 31.0884 22.2206 30.7349 21.8758L24.9753 16.2585C24.622 15.9138 24.0489 15.9138 23.6954 16.2585C23.342 16.6032 23.342 17.1621 23.6954 17.5068L28.815 22.5L23.6954 27.4932C23.342 27.8379 23.342 28.3968 23.6954 28.7415C24.0489 29.0862 24.622 29.0862 24.9753 28.7415L30.7349 23.1242ZM13 23.3827H30.0949V21.6173H13V23.3827Z"
         fill="#211747" />
      <rect x="0.5" y="0.5" width="44" height="44" rx="22" stroke="#211747" />
   </symbol>
   <symbol id="iconHeaderNav" viewBox="0 0 70 45">
      <path
         d="M46.3494 2.63446L18.0866 6.25431C8.09763 7.53367 1.0439 16.6158 2.33163 26.5399C3.61935 36.4639 12.7609 43.4718 22.7498 42.1924L51.0126 38.5726C61.0015 37.2932 68.0553 28.2111 66.7676 18.287C65.4798 8.363 56.3383 1.3551 46.3494 2.63446Z"
         fill="#BFE8FB" stroke="#211747" stroke-width="2" />
      <path
         d="M19.2681 20.1814L19 18.1551L28.1833 17L28.4514 19.0263L25.1356 19.4433L26.2472 27.8467L23.6801 28.1696L22.5685 19.7662L19.2681 20.1814ZM34.2229 27.0102C32.9598 27.1691 31.9027 26.9284 31.0516 26.2881C30.1992 25.638 29.6994 24.7567 29.5524 23.6442C29.4038 22.5218 29.6578 21.5456 30.3145 20.7157C30.9698 19.8759 31.929 19.3766 33.1921 19.2177C34.4553 19.0589 35.513 19.3045 36.3654 19.9546C37.2165 20.5949 37.7162 21.4763 37.8647 22.5987C38.0119 23.7112 37.7527 24.688 37.0873 25.5291C36.4306 26.3589 35.4759 26.8526 34.2229 27.0102ZM34.7264 21.5393C34.3593 21.1915 33.9263 21.0491 33.4271 21.1119C32.928 21.1747 32.5462 21.4196 32.2816 21.8467C32.017 22.2739 31.9222 22.7704 31.9971 23.3367C32.0707 23.893 32.2911 24.3449 32.658 24.6926C33.0353 25.0389 33.4683 25.1813 33.9573 25.1199C34.4565 25.0572 34.8383 24.8122 35.1029 24.385C35.3776 23.9567 35.4782 23.4643 35.4046 22.9081C35.3297 22.3419 35.1036 21.8856 34.7264 21.5393ZM39.7852 18.5702L42.2299 18.2627L42.3403 19.0971C42.8954 18.3608 43.6771 17.9292 44.6856 17.8024C45.7145 17.673 46.6456 17.9396 47.4789 18.6023C48.3223 19.2637 48.8164 20.1406 48.9609 21.2333C49.1054 22.326 48.8494 23.2871 48.1928 24.117C47.5465 24.9456 46.7037 25.4252 45.6647 25.5559C44.6868 25.6789 43.8322 25.443 43.1011 24.8483L43.6096 28.6924L41.1648 29L39.7852 18.5702ZM42.7247 22.0026C42.797 22.5488 43.0427 22.9976 43.462 23.3488C43.88 23.6901 44.3691 23.8255 44.9294 23.755C45.4794 23.6859 45.9122 23.4345 46.2276 23.0009C46.5418 22.5575 46.6628 22.0627 46.5905 21.5163C46.5182 20.97 46.2731 20.5262 45.8552 20.1849C45.4358 19.8337 44.9512 19.6927 44.4011 19.7619C43.851 19.8311 43.4189 20.0874 43.1047 20.5308C42.7893 20.9644 42.6625 21.4549 42.7247 22.0026Z"
         fill="#211747" />
   </symbol>
   <symbol id="indexTitleIcon-1" viewBox="0 0 130 55">
      <path
         d="M106.671 3.98739L19.0475 15.3156C9.1923 16.5897 2.23305 25.6345 3.50352 35.5177C4.774 45.4009 13.7931 52.3799 23.6483 51.1058L111.272 39.7776C121.127 38.5035 128.086 29.4588 126.816 19.5756C125.545 9.69235 116.526 2.71329 106.671 3.98739Z"
         fill="#BFE8FB" />
      <path
         d="M18.8848 26.9998L21.408 26.6734L21.9746 30.9595L26.87 30.3263L26.3184 26.0383L28.8568 25.7099L30.2211 36.3164L27.6827 36.6448L27.1331 32.3719L22.2377 33.0051L22.7873 37.278L20.249 37.6064L18.8848 26.9998ZM36.5483 35.652C35.5208 35.785 34.5863 35.5259 33.7449 34.8747C32.9134 34.2224 32.4262 33.3406 32.2833 32.2294C32.1403 31.1182 32.3821 30.1319 33.0087 29.2703C33.6451 28.4075 34.4722 27.9103 35.4895 27.7787C36.4968 27.6484 37.3549 27.8712 38.0638 28.4469L37.9567 27.6136L40.3742 27.3009L41.3487 34.8771L38.9312 35.1897L38.8181 34.3109C38.282 35.0786 37.5253 35.5256 36.5483 35.652ZM37.7017 30.0497C37.2871 29.6925 36.8078 29.5491 36.2639 29.6195C35.72 29.6898 35.2927 29.9505 34.982 30.4015C34.6713 30.8525 34.5518 31.3557 34.6232 31.9113C34.6947 32.4669 34.9377 32.9232 35.3523 33.2804C35.7656 33.6274 36.2442 33.7659 36.7882 33.6955C37.3421 33.6238 37.7752 33.3675 38.0871 32.9267C38.3978 32.4757 38.5173 31.9724 38.4459 31.4168C38.3644 30.8626 38.1162 30.4068 37.7017 30.0497ZM46.5127 34.209L44.0952 34.5217L43.1207 26.9456L45.5382 26.6329L45.6473 27.4814C46.1633 26.7163 46.8999 26.2719 47.8567 26.1481C48.874 26.0166 49.7272 26.2399 50.416 26.8183C51.1136 27.3853 51.5377 28.2548 51.6884 29.4266L52.2088 33.4722L49.7914 33.7849L49.2983 29.9514C49.2255 29.3857 49.0267 28.9544 48.7018 28.6576C48.3769 28.3607 47.9727 28.2435 47.4891 28.3061C46.9654 28.3738 46.5714 28.6148 46.3072 29.0289C46.0531 29.4417 45.9624 29.931 46.0352 30.4967L46.5127 34.209ZM58.2737 32.8416C57.2462 32.9746 56.3118 32.7155 55.4702 32.0644C54.6387 31.4121 54.1515 30.5302 54.0086 29.419C53.8657 28.3079 54.1125 27.3209 54.7491 26.4581C55.3857 25.5952 56.2076 25.0987 57.2149 24.9684C58.2322 24.8368 59.091 25.0645 59.7912 25.6518L59.2923 21.7728L61.7097 21.4601L63.074 32.0667L60.6565 32.3793L60.5435 31.5006C59.9973 32.2695 59.2406 32.7166 58.2737 32.8416ZM59.4271 27.2393C59.0124 26.8822 58.5332 26.7388 57.9893 26.8092C57.4453 26.8795 57.018 27.1402 56.7074 27.5912C56.3968 28.0421 56.2771 28.5454 56.3486 29.1009C56.42 29.6565 56.6631 30.1129 57.0776 30.47C57.491 30.8171 57.9696 30.9555 58.5135 30.8851C59.0676 30.8135 59.5005 30.5572 59.8124 30.1163C60.1231 29.6653 60.2427 29.162 60.1712 28.6064C60.0897 28.0522 59.8417 27.5965 59.4271 27.2393ZM65.8206 31.7114L64.8461 24.1353L67.2636 23.8226L67.3747 24.6863C67.8894 23.9111 68.6051 23.4641 69.5217 23.3456C70.7404 23.1879 71.6692 23.6018 72.3081 24.5872C72.8074 23.4546 73.6515 22.8114 74.8401 22.6576C75.7567 22.539 76.5337 22.7672 77.1708 23.342C77.808 23.9168 78.2025 24.7951 78.3546 25.977L78.8749 30.0227L76.4574 30.3354L75.9643 26.5019C75.8903 25.9261 75.7116 25.4922 75.4283 25.2002C75.1437 24.8982 74.7747 24.7765 74.3214 24.8351C73.8682 24.8937 73.5296 25.1275 73.3057 25.5364C73.0804 25.9353 73.0037 26.4125 73.0751 26.9681L73.5565 30.7107L71.139 31.0234L70.6459 27.1899C70.5718 26.6141 70.3932 26.1802 70.1098 25.8882C69.8253 25.5861 69.4613 25.4638 69.0181 25.5211C68.5447 25.5824 68.196 25.8174 67.9722 26.2264C67.757 26.6239 67.6865 27.1105 67.7605 27.6863L68.238 31.3987L65.8206 31.7114ZM84.9419 29.3919C83.9145 29.5248 82.98 29.2657 82.1385 28.6147C81.3071 27.9622 80.8199 27.0805 80.6769 25.9693C80.534 24.8582 80.7758 23.8718 81.4023 23.0103C82.0389 22.1474 82.8659 21.6503 83.8832 21.5186C84.8904 21.3883 85.7486 21.6111 86.4576 22.1869L86.3504 21.3535L88.7679 21.0408L89.7423 28.6169L87.3249 28.9296L87.2119 28.0508C86.6756 28.8185 85.9191 29.2655 84.9419 29.3919ZM86.0954 23.7896C85.6808 23.4325 85.2015 23.2891 84.6576 23.3594C84.1137 23.4297 83.6864 23.6905 83.3757 24.1414C83.0651 24.5924 82.9455 25.0956 83.0169 25.6512C83.0884 26.2068 83.3315 26.6632 83.746 27.0203C84.1593 27.3674 84.638 27.5057 85.1818 27.4354C85.7358 27.3636 86.1688 27.1074 86.4808 26.6666C86.7914 26.2156 86.911 25.7123 86.8395 25.1567C86.7581 24.6024 86.51 24.1468 86.0954 23.7896ZM95.9079 27.9734C94.8805 28.1064 93.9461 27.8472 93.1045 27.1961C92.273 26.5437 91.7858 25.6619 91.6429 24.5508C91.5 23.4396 91.7468 22.4527 92.3834 21.5898C93.02 20.727 93.8419 20.2304 94.8491 20.1001C95.8665 19.9685 96.7253 20.1963 97.4255 20.7835L96.9266 16.9046L99.344 16.5918L100.708 27.1983L98.2908 27.5111L98.1778 26.6323C97.6316 27.4012 96.8749 27.8484 95.9079 27.9734ZM97.0614 22.3711C96.6468 22.0139 96.1675 21.8705 95.6236 21.9409C95.0796 22.0112 94.6523 22.2719 94.3417 22.7229C94.0311 23.1739 93.9114 23.6771 93.9829 24.2327C94.0544 24.7882 94.2974 25.2446 94.712 25.6018C95.1253 25.9488 95.6039 26.0871 96.1478 26.0169C96.7019 25.9452 97.1348 25.6889 97.4467 25.248C97.7574 24.7971 97.877 24.2938 97.8055 23.7382C97.724 23.184 97.476 22.7282 97.0614 22.3711ZM102.605 23.102C102.458 21.9605 102.699 20.9691 103.329 20.1278C103.956 19.2763 104.895 18.7698 106.144 18.6083C107.453 18.4389 108.509 18.7284 109.312 19.477C110.114 20.2154 110.566 21.2198 110.668 22.4903L105.107 23.2096C105.245 23.7257 105.501 24.1189 105.874 24.3891C106.255 24.6478 106.687 24.7459 107.171 24.6833C107.986 24.5778 108.579 24.1724 108.95 23.4673L110.531 24.2949C110.303 24.8276 109.899 25.3112 109.32 25.7455C108.749 26.1685 108.046 26.434 107.21 26.5422C106.012 26.6972 104.981 26.4455 104.118 25.7869C103.253 25.1182 102.75 24.2233 102.605 23.102ZM105.009 21.8512L108.318 21.4232C108.24 21.0534 108.034 20.7617 107.699 20.5483C107.364 20.3349 106.985 20.2555 106.562 20.3102C106.129 20.3662 105.776 20.53 105.504 20.8014C105.232 21.0728 105.067 21.4227 105.009 21.8512Z"
         fill="#211747" />
      <path
         d="M106.912 2.4161L18.1351 13.8934C7.76338 15.2343 0.439376 24.7532 1.77644 35.1544L1.92486 36.3089C3.26192 46.7101 12.7537 54.055 23.1254 52.7141L111.902 41.2368C122.274 39.8959 129.598 30.3771 128.261 19.9758L128.113 18.8213C126.776 8.4201 117.284 1.07523 106.912 2.4161Z"
         stroke="#211747" stroke-width="3" />
   </symbol>
   <symbol id="indexIcon-1" viewBox="0 0 37 37">
      <path
         d="M35.9404 18.6061C30.5391 19.9603 26.8413 21.4882 24.1706 24.1614C21.5002 26.8345 19.9758 30.5337 18.6207 35.9301C18.614 35.954 18.5997 35.9752 18.5798 35.9906C18.5594 36.0064 18.5341 36.0151 18.508 36.0151C18.4818 36.0151 18.4566 36.0064 18.4362 35.9906C18.4162 35.9752 18.402 35.954 18.3953 35.9301C17.04 30.5329 15.5109 26.8337 12.8359 24.1608C10.161 21.488 6.45918 19.9603 1.05794 18.6061C1.03357 18.5993 1.01215 18.5849 0.996836 18.5651C0.981133 18.5448 0.972656 18.5199 0.972656 18.4944C0.972656 18.4688 0.981134 18.4439 0.996836 18.4236C1.01216 18.4038 1.03357 18.3894 1.05794 18.3826C6.45918 17.0284 10.161 15.5007 12.8359 12.8279C15.511 10.155 17.04 6.45578 18.3953 1.05859C18.402 1.03473 18.4162 1.01348 18.4362 0.998115C18.4566 0.982283 18.4819 0.973633 18.508 0.973633C18.5341 0.973633 18.5593 0.982283 18.5798 0.998115C18.5997 1.01348 18.614 1.03473 18.6207 1.05859C19.9757 6.45498 21.5002 10.1543 24.1706 12.8273C26.8413 15.5006 30.5391 17.0284 35.9404 18.3826C35.9648 18.3894 35.9863 18.4039 36.0016 18.4237C36.0173 18.4439 36.0257 18.4688 36.0257 18.4944C36.0257 18.5199 36.0173 18.5448 36.0016 18.5651C35.9863 18.5849 35.9649 18.5993 35.9404 18.6061Z"
         fill="#BFE8FB" stroke="#26103D" stroke-width="1.94692" />
   </symbol>
   <symbol id="indexStain-1" viewBox="0 0 600 530">
      <path fill-rule="evenodd" clip-rule="evenodd"
         d="M279.345 29.5453C358.377 10.0196 448.471 -23.7782 513.923 25.6315C582.948 77.7374 615.01 181.211 592.57 265.996C572.281 342.651 473.795 353.474 413.832 403.8C365.142 444.665 341.885 521.65 279.345 528.882C213.848 536.457 159.155 484.58 110.637 438.864C59.2255 390.421 -5.29121 337.33 0.345246 265.996C5.86428 196.148 83.21 163.686 135.91 119.024C180.75 81.0217 222.775 43.5213 279.345 29.5453Z"
         fill="#3F3C87" />
   </symbol>
   <symbol id="indexStain-2" viewBox="0 0 620 620">
      <path fill-rule="evenodd" clip-rule="evenodd"
         d="M305.92 14.3998C406.149 14.8976 528.598 -25.3693 592.738 51.9245C656.449 128.702 590.47 240.923 575.913 339.763C564.742 415.603 574.766 501.213 518.867 553.467C463.995 604.762 380.693 586.421 305.92 592.151C220.168 598.724 114.82 653.382 57.7554 588.81C0.404617 523.914 89.5277 426.247 82.8772 339.763C74.9523 236.704 -42.1282 134.219 16.2498 49.0613C73.5452 -34.5181 204.833 13.8978 305.92 14.3998Z"
         fill="#434092" />
   </symbol>
</svg>
