<svg display="none" xmlns="http://www.w3.org/2000/svg" xmlns:xlink="http://www.w3.org/1999/xlink">
   <symbol id="logo" viewBox="0 0 120 50">
      <path d="M20.116 22.3227L15.5549 3.52522H8.9758L4 22.3227H9.22459L9.91567 18.8396H13.841L14.4768 22.3227H20.116ZM13.1499 14.9419H10.6344L11.906 8.08637L13.1499 14.9419Z" fill="#211747" />
      <path
         d="M36.751 22.3227L32.494 14.0573C34.2355 12.924 35.2859 11.1548 35.2859 8.88802C35.2859 5.01796 32.6045 3 28.1816 3C26.3571 3 24.2563 3.35936 21.8513 4.05044V22.3227H27.3523V15.3289H27.6011L30.0614 22.3227H36.751ZM29.6467 9.57911C29.6467 11.68 28.7621 12.3987 27.3523 12.5093V7.1465C28.6239 7.22943 29.6467 7.86522 29.6467 9.57911Z"
         fill="#211747" />
      <path
         d="M50.747 16.9599C50.747 8.74981 43.615 11.1824 43.615 8.88802C43.615 7.69936 44.6378 7.1465 45.9094 7.1465C47.4021 7.1465 48.9778 7.83758 49.8071 8.22458V4.18866C48.2867 3.41465 46.9046 3 45.2183 3C41.5417 3 38.114 4.99032 38.114 9.16446C38.114 16.9599 45.2183 14.9419 45.2183 17.2087C45.2183 18.2315 44.2232 18.7014 42.9516 18.7014C41.293 18.7014 39.1091 18.0103 38.114 17.6233V21.6592C39.5238 22.4333 41.4312 22.8479 43.3386 22.8479C47.0428 22.8479 50.747 21.1617 50.747 16.9599Z"
         fill="#211747" />
      <path d="M64.1924 22.3227V18.1485H58.802V14.9419H62.8379V10.7678H58.802V7.69936H64.1924V3.52522H53.301V22.3227H64.1924Z" fill="#211747" />
      <path d="M82.8467 22.3227V3.52522H78.3961V16.0753L73.835 3.52522H66.1778V22.3227H70.6283V9.63439L75.3277 22.3227H82.8467Z" fill="#211747" />
      <path d="M91.5474 22.3227V3.52522H86.0464V22.3227H91.5474Z" fill="#211747" />
      <path d="M100.985 19.3649V3.52522H93.466V7.56114H95.484V18.9778C95.484 21.6592 93.7148 23.926 92.388 25.0041L97.7508 25.2805C99.1053 24.2024 100.985 22.3227 100.985 19.3649Z" fill="#211747" />
      <path
         d="M115.887 16.9599C115.887 8.74981 108.755 11.1824 108.755 8.88802C108.755 7.69936 109.778 7.1465 111.05 7.1465C112.542 7.1465 114.118 7.83758 114.947 8.22458V4.18866C113.427 3.41465 112.045 3 110.359 3C106.682 3 103.254 4.99032 103.254 9.16446C103.254 16.9599 110.359 14.9419 110.359 17.2087C110.359 18.2315 109.363 18.7014 108.092 18.7014C106.433 18.7014 104.249 18.0103 103.254 17.6233V21.6592C104.664 22.4333 106.571 22.8479 108.479 22.8479C112.183 22.8479 115.887 21.1617 115.887 16.9599Z"
         fill="#211747" />
      <path d="M22.0796 32.6994V28.5252H11.1881V47.3227H16.6891V41.2688H20.725V37.1223H16.6891V32.6994H22.0796Z" fill="#211747" />
      <path d="M38.041 47.3227L33.4798 28.5252H26.9007L21.9249 47.3227H27.1495L27.8406 43.8396H31.766L32.4017 47.3227H38.041ZM31.0749 39.9419H28.5593L29.8309 33.0864L31.0749 39.9419Z" fill="#211747" />
      <path
         d="M53.2109 41.5452C53.2109 39.3891 51.8011 38.0622 49.6726 37.4264C51.9946 36.2377 52.5475 34.745 52.5475 33.2246C52.5475 29.7139 49.5343 28 45.2773 28C43.6187 28 41.7113 28.2488 39.7762 28.8017V47.0463C41.9048 47.682 43.7569 47.9861 45.4155 47.9861C50.3084 47.9861 53.2109 45.4982 53.2109 41.5452ZM45.1667 39.6655C46.6318 39.7208 47.9863 40.2736 47.9863 41.8217C47.9863 43.425 46.6041 44.0055 45.1667 44.0884V39.6655ZM47.4334 34.4409C47.4334 35.1043 47.3505 36.1271 46.8806 36.9012C46.4106 36.8735 45.7748 36.8459 45.2773 36.8459H45.1667V31.7595C46.4106 31.953 47.4334 32.7823 47.4334 34.4409Z"
         fill="#211747" />
      <path
         d="M70.5223 47.3227L66.2652 39.0573C68.0068 37.924 69.0572 36.1548 69.0572 33.888C69.0572 30.018 66.3758 28 61.9529 28C60.1284 28 58.0275 28.3594 55.6226 29.0505V47.3227H61.1236V40.3289H61.3724L63.8326 47.3227H70.5223ZM63.418 34.5791C63.418 36.68 62.5334 37.3987 61.1236 37.5093V32.1465C62.3952 32.2294 63.418 32.8652 63.418 34.5791Z"
         fill="#211747" />
      <path d="M78.0497 47.3227V28.5252H72.5487V47.3227H78.0497Z" fill="#211747" />
      <path
         d="M94.3152 46.6592V42.2087C92.933 42.8445 91.385 43.2868 90.0305 43.2868C87.7637 43.2868 85.9946 42.264 85.9946 38.2004C85.9946 33.9157 87.9573 32.5612 90.4452 32.5612C91.6615 32.5612 93.016 32.9482 94.3152 33.6392V29.1887C92.6566 28.4147 91.0533 28 89.5053 28C84.5018 28 80.3553 31.8424 80.3553 38.8638C80.3553 44.973 84.4466 47.8479 89.0906 47.8479C90.8322 47.8479 92.6013 47.4333 94.3152 46.6592Z"
         fill="#211747" />
      <path d="M110.983 47.3227L106.422 28.5252H99.8424L94.8666 47.3227H100.091L100.782 43.8396H104.708L105.344 47.3227H110.983ZM104.017 39.9419H101.501L102.773 33.0864L104.017 39.9419Z" fill="#211747" />
   </symbol>
   <symbol id="iconFavorite" viewBox="0 0 45 45">
      <path
         d="M38.6123 6.67835C36.5679 5.34035 34.146 4.77626 31.7515 5.08043C29.3569 5.38459 27.1348 6.53854 25.4568 8.34939L23.0057 10.871H22.9482L20.5257 8.34939C18.8477 6.53854 16.6255 5.38459 14.231 5.08043C11.8364 4.77626 9.41456 5.34035 7.37021 6.67835C6.17545 7.48694 5.16827 8.56373 4.4219 9.83038C3.67552 11.097 3.20875 12.5217 3.05559 14.0006C2.90243 15.4795 3.06671 16.9755 3.53649 18.3797C4.00626 19.784 4.76971 21.0611 5.77126 22.1181L22.8811 41L40.2399 22.1181C41.2401 21.0589 42.0017 19.7801 42.4691 18.3746C42.9366 16.9691 43.0983 15.4724 42.9425 13.9933C42.7865 12.5143 42.3169 11.0902 41.5679 9.82477C40.8187 8.55934 39.809 7.48445 38.6123 6.67835Z"
         stroke="currentColor" stroke-width="4" stroke-linecap="round" stroke-linejoin="round" />
   </symbol>
   <symbol id="iconBacket" viewBox="0 0 45 45">
      <path
         d="M15.5 17.3752V8.62095C15.5 4.96429 18.6339 2 22.4999 2C26.3659 2 29.5 4.96429 29.5 8.62095V17.3752M9.04515 38.4851L5.12807 19.266C4.39419 15.6653 6.90718 12.2495 10.2902 12.2495H34.7098C38.0927 12.2495 40.6058 15.6653 39.872 19.266L35.9547 38.4851C35.4171 41.1231 33.2713 43 30.7927 43H14.2073C11.7288 43 9.5828 41.1231 9.04515 38.4851Z"
         stroke="currentColor" stroke-width="4" />
   </symbol>
   <symbol id="iconSearch" viewBox="0 0 45 45">
      <path d="M20.0001 36C28.8366 36 36 28.8366 36 20.0001C36 11.1634 28.8366 4 20.0001 4C11.1635 4 4 11.1634 4 20.0001C4 28.8366 11.1635 36 20.0001 36Z" stroke="currentColor" stroke-width="4" stroke-linecap="round"
         stroke-linejoin="round" />
      <path d="M32 32L42 42" stroke="#211747" stroke-width="4" stroke-miterlimit="10" stroke-linecap="round" />
   </symbol>
   <symbol id="iconArrow" viewBox="0 0 45 45">
      <path d="M22.5 45C34.9264 45 45 34.9264 45 22.5C45 10.0736 34.9264 0 22.5 0C10.0736 0 0 10.0736 0 22.5C0 34.9264 10.0736 45 22.5 45Z" fill="white" />
      <path
         d="M30.7349 23.1242C31.0884 22.7794 31.0884 22.2206 30.7349 21.8758L24.9753 16.2585C24.622 15.9138 24.0489 15.9138 23.6954 16.2585C23.342 16.6032 23.342 17.1621 23.6954 17.5068L28.815 22.5L23.6954 27.4932C23.342 27.8379 23.342 28.3968 23.6954 28.7415C24.0489 29.0862 24.622 29.0862 24.9753 28.7415L30.7349 23.1242ZM13 23.3827H30.0949V21.6173H13V23.3827Z"
         fill="#211747" />
      <rect x="0.5" y="0.5" width="44" height="44" rx="22" stroke="#211747" />
   </symbol>
   <symbol id="iconHeaderNav" viewBox="0 0 70 45">
         <path d="M46.3494 2.63446L18.0866 6.25431C8.09763 7.53367 1.0439 16.6158 2.33163 26.5399C3.61935 36.4639 12.7609 43.4718 22.7498 42.1924L51.0126 38.5726C61.0015 37.2932 68.0553 28.2111 66.7676 18.287C65.4798 8.363 56.3383 1.3551 46.3494 2.63446Z" fill="#BFE8FB" stroke="#211747" stroke-width="2"/>
         <path d="M19.2681 20.1814L19 18.1551L28.1833 17L28.4514 19.0263L25.1356 19.4433L26.2472 27.8467L23.6801 28.1696L22.5685 19.7662L19.2681 20.1814ZM34.2229 27.0102C32.9598 27.1691 31.9027 26.9284 31.0516 26.2881C30.1992 25.638 29.6994 24.7567 29.5524 23.6442C29.4038 22.5218 29.6578 21.5456 30.3145 20.7157C30.9698 19.8759 31.929 19.3766 33.1921 19.2177C34.4553 19.0589 35.513 19.3045 36.3654 19.9546C37.2165 20.5949 37.7162 21.4763 37.8647 22.5987C38.0119 23.7112 37.7527 24.688 37.0873 25.5291C36.4306 26.3589 35.4759 26.8526 34.2229 27.0102ZM34.7264 21.5393C34.3593 21.1915 33.9263 21.0491 33.4271 21.1119C32.928 21.1747 32.5462 21.4196 32.2816 21.8467C32.017 22.2739 31.9222 22.7704 31.9971 23.3367C32.0707 23.893 32.2911 24.3449 32.658 24.6926C33.0353 25.0389 33.4683 25.1813 33.9573 25.1199C34.4565 25.0572 34.8383 24.8122 35.1029 24.385C35.3776 23.9567 35.4782 23.4643 35.4046 22.9081C35.3297 22.3419 35.1036 21.8856 34.7264 21.5393ZM39.7852 18.5702L42.2299 18.2627L42.3403 19.0971C42.8954 18.3608 43.6771 17.9292 44.6856 17.8024C45.7145 17.673 46.6456 17.9396 47.4789 18.6023C48.3223 19.2637 48.8164 20.1406 48.9609 21.2333C49.1054 22.326 48.8494 23.2871 48.1928 24.117C47.5465 24.9456 46.7037 25.4252 45.6647 25.5559C44.6868 25.6789 43.8322 25.443 43.1011 24.8483L43.6096 28.6924L41.1648 29L39.7852 18.5702ZM42.7247 22.0026C42.797 22.5488 43.0427 22.9976 43.462 23.3488C43.88 23.6901 44.3691 23.8255 44.9294 23.755C45.4794 23.6859 45.9122 23.4345 46.2276 23.0009C46.5418 22.5575 46.6628 22.0627 46.5905 21.5163C46.5182 20.97 46.2731 20.5262 45.8552 20.1849C45.4358 19.8337 44.9512 19.6927 44.4011 19.7619C43.851 19.8311 43.4189 20.0874 43.1047 20.5308C42.7893 20.9644 42.6625 21.4549 42.7247 22.0026Z" fill="#211747"/>
   </symbol>
</svg>
